<?xml version="1.0" encoding="UTF-8" standalone="no"?>
<svg
   xmlns:dc="http://purl.org/dc/elements/1.1/"
   xmlns:cc="http://creativecommons.org/ns#"
   xmlns:rdf="http://www.w3.org/1999/02/22-rdf-syntax-ns#"
   xmlns:svg="http://www.w3.org/2000/svg"
   xmlns="http://www.w3.org/2000/svg"
   xmlns:sodipodi="http://sodipodi.sourceforge.net/DTD/sodipodi-0.dtd"
   xmlns:inkscape="http://www.inkscape.org/namespaces/inkscape"
   version="1.1"
   width="23.702999"
   height="12.08"
   id="svg277"
   sodipodi:docname="iPad.svg"
   inkscape:version="0.92.4 5da689c313, 2019-01-14">
  <metadata
     id="metadata283">
    <rdf:RDF>
      <cc:Work
         rdf:about="">
        <dc:format>image/svg+xml</dc:format>
        <dc:type
           rdf:resource="http://purl.org/dc/dcmitype/StillImage" />
        <dc:title></dc:title>
      </cc:Work>
    </rdf:RDF>
  </metadata>
  <defs
     id="defs281" />
  <sodipodi:namedview
     pagecolor="#ffffff"
     bordercolor="#666666"
     borderopacity="1"
     objecttolerance="10"
     gridtolerance="10"
     guidetolerance="10"
     inkscape:pageopacity="0"
     inkscape:pageshadow="2"
     inkscape:window-width="640"
     inkscape:window-height="480"
     id="namedview279"
     showgrid="false"
     inkscape:zoom="2.1541667"
     inkscape:cx="-48.321"
     inkscape:cy="9.7737926"
     inkscape:current-layer="svg277" />
  <g
     id="g100"
     style="fill-opacity:0.5"
     transform="translate(-68.139,-158.114)">
    <path
       d="m 69.987,159.206 c 0,0.271 -0.089,0.49 -0.266,0.658 -0.178,0.168 -0.406,0.252 -0.686,0.252 -0.252,0 -0.464,-0.086 -0.637,-0.259 -0.173,-0.173 -0.259,-0.39 -0.259,-0.651 0,-0.261 0.088,-0.476 0.266,-0.644 0.177,-0.169 0.397,-0.253 0.658,-0.253 0.261,0 0.48,0.084 0.658,0.253 0.177,0.168 0.266,0.383 0.266,0.644 z m -0.168,8.834 h -1.512 v -6.804 h 1.512 z"
       id="path92"
       inkscape:connector-curvature="0" />
    <path
       d="m 77.869,161.348 c 0,0.868 -0.256,1.563 -0.768,2.086 -0.661,0.682 -1.624,1.022 -2.889,1.022 -0.372,0 -0.661,-0.023 -0.865,-0.07 v 3.654 h -1.512 v -9.31 c 0.719,-0.131 1.54,-0.196 2.464,-0.196 1.194,0 2.095,0.257 2.702,0.77 0.579,0.504 0.868,1.185 0.868,2.044 z m -1.498,0.07 c 0,-0.551 -0.176,-0.973 -0.529,-1.267 -0.354,-0.294 -0.846,-0.441 -1.478,-0.441 -0.418,0 -0.757,0.028 -1.017,0.084 v 3.388 c 0.213,0.057 0.506,0.084 0.878,0.084 0.669,0 1.194,-0.163 1.575,-0.489 0.381,-0.328 0.571,-0.78 0.571,-1.359 z"
       id="path94"
       inkscape:connector-curvature="0" />
    <path
       d="m 84.029,168.04 h -1.357 l -0.113,-0.784 h -0.041 c -0.467,0.626 -1.13,0.938 -1.988,0.938 -0.644,0 -1.162,-0.205 -1.554,-0.616 -0.354,-0.373 -0.532,-0.835 -0.532,-1.386 0,-0.831 0.348,-1.466 1.043,-1.904 0.695,-0.438 1.673,-0.653 2.934,-0.645 v -0.126 c 0,-0.896 -0.473,-1.344 -1.414,-1.344 -0.672,0 -1.266,0.168 -1.779,0.504 l -0.308,-0.994 c 0.634,-0.392 1.414,-0.588 2.338,-0.588 1.782,0 2.674,0.938 2.674,2.814 v 2.506 c 0,0.683 0.032,1.224 0.097,1.625 z m -1.568,-2.338 v -1.05 c -1.67,-0.028 -2.506,0.429 -2.506,1.372 0,0.354 0.098,0.62 0.292,0.798 0.195,0.177 0.441,0.266 0.739,0.266 0.334,0 0.643,-0.104 0.925,-0.314 0.283,-0.21 0.457,-0.479 0.522,-0.806 0.018,-0.074 0.028,-0.163 0.028,-0.266 z"
       id="path96"
       inkscape:connector-curvature="0" />
    <path
       d="m 91.842,168.04 h -1.345 l -0.069,-1.092 h -0.043 c -0.43,0.831 -1.157,1.246 -2.184,1.246 -0.821,0 -1.503,-0.322 -2.044,-0.966 -0.542,-0.645 -0.812,-1.479 -0.812,-2.507 0,-1.101 0.295,-1.992 0.887,-2.674 0.572,-0.635 1.276,-0.952 2.111,-0.952 0.92,0 1.562,0.309 1.93,0.925 v -3.906 h 1.512 v 8.092 c 0,0.663 0.019,1.274 0.057,1.834 z m -1.569,-2.87 v -1.134 c 0,-0.196 -0.015,-0.354 -0.043,-0.477 -0.084,-0.363 -0.267,-0.669 -0.548,-0.917 -0.281,-0.247 -0.618,-0.37 -1.013,-0.37 -0.562,0 -1.004,0.224 -1.328,0.672 -0.322,0.447 -0.484,1.021 -0.484,1.722 0,0.672 0.154,1.218 0.464,1.638 0.327,0.448 0.769,0.672 1.321,0.672 0.496,0 0.895,-0.187 1.195,-0.56 0.291,-0.345 0.436,-0.761 0.436,-1.246 z"
       id="path98"
       inkscape:connector-curvature="0" />
  </g>
  <g
     id="g110"
     style="fill-opacity:0.17000002"
     transform="translate(-68.139,-158.114)">
    <path
       d="m 69.987,161.206 c 0,0.271 -0.089,0.49 -0.266,0.658 -0.178,0.168 -0.406,0.252 -0.686,0.252 -0.252,0 -0.464,-0.086 -0.637,-0.259 -0.173,-0.173 -0.259,-0.39 -0.259,-0.651 0,-0.261 0.088,-0.476 0.266,-0.644 0.177,-0.169 0.397,-0.253 0.658,-0.253 0.261,0 0.48,0.084 0.658,0.253 0.177,0.168 0.266,0.383 0.266,0.644 z m -0.168,8.834 h -1.512 v -6.804 h 1.512 z"
       id="path102"
       inkscape:connector-curvature="0" />
    <path
       d="m 77.869,163.348 c 0,0.868 -0.256,1.563 -0.768,2.086 -0.661,0.682 -1.624,1.022 -2.889,1.022 -0.372,0 -0.661,-0.023 -0.865,-0.07 v 3.654 h -1.512 v -9.31 c 0.719,-0.131 1.54,-0.196 2.464,-0.196 1.194,0 2.095,0.257 2.702,0.77 0.579,0.504 0.868,1.185 0.868,2.044 z m -1.498,0.07 c 0,-0.551 -0.176,-0.973 -0.529,-1.267 -0.354,-0.294 -0.846,-0.441 -1.478,-0.441 -0.418,0 -0.757,0.028 -1.017,0.084 v 3.388 c 0.213,0.057 0.506,0.084 0.878,0.084 0.669,0 1.194,-0.163 1.575,-0.489 0.381,-0.328 0.571,-0.78 0.571,-1.359 z"
       id="path104"
       inkscape:connector-curvature="0" />
    <path
       d="m 84.029,170.04 h -1.357 l -0.113,-0.784 h -0.041 c -0.467,0.626 -1.13,0.938 -1.988,0.938 -0.644,0 -1.162,-0.205 -1.554,-0.616 -0.354,-0.373 -0.532,-0.835 -0.532,-1.386 0,-0.831 0.348,-1.466 1.043,-1.904 0.695,-0.438 1.673,-0.653 2.934,-0.645 v -0.126 c 0,-0.896 -0.473,-1.344 -1.414,-1.344 -0.672,0 -1.266,0.168 -1.779,0.504 l -0.308,-0.994 c 0.634,-0.392 1.414,-0.588 2.338,-0.588 1.782,0 2.674,0.938 2.674,2.814 v 2.506 c 0,0.683 0.032,1.224 0.097,1.625 z m -1.568,-2.338 v -1.05 c -1.67,-0.028 -2.506,0.429 -2.506,1.372 0,0.354 0.098,0.62 0.292,0.798 0.195,0.177 0.441,0.266 0.739,0.266 0.334,0 0.643,-0.104 0.925,-0.314 0.283,-0.21 0.457,-0.479 0.522,-0.806 0.018,-0.074 0.028,-0.163 0.028,-0.266 z"
       id="path106"
       inkscape:connector-curvature="0" />
    <path
       d="m 91.842,170.04 h -1.345 l -0.069,-1.092 h -0.043 c -0.43,0.831 -1.157,1.246 -2.184,1.246 -0.821,0 -1.503,-0.322 -2.044,-0.966 -0.542,-0.645 -0.812,-1.479 -0.812,-2.507 0,-1.101 0.295,-1.992 0.887,-2.674 0.572,-0.635 1.276,-0.952 2.111,-0.952 0.92,0 1.562,0.309 1.93,0.925 v -3.906 h 1.512 v 8.092 c 0,0.663 0.019,1.274 0.057,1.834 z m -1.569,-2.87 v -1.134 c 0,-0.196 -0.015,-0.354 -0.043,-0.477 -0.084,-0.363 -0.267,-0.669 -0.548,-0.917 -0.281,-0.247 -0.618,-0.37 -1.013,-0.37 -0.562,0 -1.004,0.224 -1.328,0.672 -0.322,0.447 -0.484,1.021 -0.484,1.722 0,0.672 0.154,1.218 0.464,1.638 0.327,0.448 0.769,0.672 1.321,0.672 0.496,0 0.895,-0.187 1.195,-0.56 0.291,-0.345 0.436,-0.761 0.436,-1.246 z"
       id="path108"
       inkscape:connector-curvature="0" />
  </g>
  <g
     id="g120"
     transform="translate(-68.139,-158.114)">
    <path
       d="m 69.987,160.206 c 0,0.271 -0.089,0.49 -0.266,0.658 -0.178,0.168 -0.406,0.252 -0.686,0.252 -0.252,0 -0.464,-0.086 -0.637,-0.259 -0.173,-0.173 -0.259,-0.39 -0.259,-0.651 0,-0.261 0.088,-0.476 0.266,-0.644 0.177,-0.169 0.397,-0.253 0.658,-0.253 0.261,0 0.48,0.084 0.658,0.253 0.177,0.168 0.266,0.383 0.266,0.644 z m -0.168,8.834 h -1.512 v -6.804 h 1.512 z"
       id="path112"
       inkscape:connector-curvature="0"
       style="fill:#ffffff" />
    <path
       d="m 77.869,162.348 c 0,0.868 -0.256,1.563 -0.768,2.086 -0.661,0.682 -1.624,1.022 -2.889,1.022 -0.372,0 -0.661,-0.023 -0.865,-0.07 v 3.654 h -1.512 v -9.31 c 0.719,-0.131 1.54,-0.196 2.464,-0.196 1.194,0 2.095,0.257 2.702,0.77 0.579,0.504 0.868,1.185 0.868,2.044 z m -1.498,0.07 c 0,-0.551 -0.176,-0.973 -0.529,-1.267 -0.354,-0.294 -0.846,-0.441 -1.478,-0.441 -0.418,0 -0.757,0.028 -1.017,0.084 v 3.388 c 0.213,0.057 0.506,0.084 0.878,0.084 0.669,0 1.194,-0.163 1.575,-0.489 0.381,-0.328 0.571,-0.78 0.571,-1.359 z"
       id="path114"
       inkscape:connector-curvature="0"
       style="fill:#ffffff" />
    <path
       d="m 84.029,169.04 h -1.357 l -0.113,-0.784 h -0.041 c -0.467,0.626 -1.13,0.938 -1.988,0.938 -0.644,0 -1.162,-0.205 -1.554,-0.616 -0.354,-0.373 -0.532,-0.835 -0.532,-1.386 0,-0.831 0.348,-1.466 1.043,-1.904 0.695,-0.438 1.673,-0.653 2.934,-0.645 v -0.126 c 0,-0.896 -0.473,-1.344 -1.414,-1.344 -0.672,0 -1.266,0.168 -1.779,0.504 l -0.308,-0.994 c 0.634,-0.392 1.414,-0.588 2.338,-0.588 1.782,0 2.674,0.938 2.674,2.814 v 2.506 c 0,0.683 0.032,1.224 0.097,1.625 z m -1.568,-2.338 v -1.05 c -1.67,-0.028 -2.506,0.429 -2.506,1.372 0,0.354 0.098,0.62 0.292,0.798 0.195,0.177 0.441,0.266 0.739,0.266 0.334,0 0.643,-0.104 0.925,-0.314 0.283,-0.21 0.457,-0.479 0.522,-0.806 0.018,-0.074 0.028,-0.163 0.028,-0.266 z"
       id="path116"
       inkscape:connector-curvature="0"
       style="fill:#ffffff" />
    <path
       d="m 91.842,169.04 h -1.345 l -0.069,-1.092 h -0.043 c -0.43,0.831 -1.157,1.246 -2.184,1.246 -0.821,0 -1.503,-0.322 -2.044,-0.966 -0.542,-0.645 -0.812,-1.479 -0.812,-2.507 0,-1.101 0.295,-1.992 0.887,-2.674 0.572,-0.635 1.276,-0.952 2.111,-0.952 0.92,0 1.562,0.309 1.93,0.925 v -3.906 h 1.512 v 8.092 c 0,0.663 0.019,1.274 0.057,1.834 z m -1.569,-2.87 v -1.134 c 0,-0.196 -0.015,-0.354 -0.043,-0.477 -0.084,-0.363 -0.267,-0.669 -0.548,-0.917 -0.281,-0.247 -0.618,-0.37 -1.013,-0.37 -0.562,0 -1.004,0.224 -1.328,0.672 -0.322,0.447 -0.484,1.021 -0.484,1.722 0,0.672 0.154,1.218 0.464,1.638 0.327,0.448 0.769,0.672 1.321,0.672 0.496,0 0.895,-0.187 1.195,-0.56 0.291,-0.345 0.436,-0.761 0.436,-1.246 z"
       id="path118"
       inkscape:connector-curvature="0"
       style="fill:#ffffff" />
  </g>
</svg>
