<?xml version="1.0" encoding="UTF-8" standalone="no"?>
<svg
   xmlns:dc="http://purl.org/dc/elements/1.1/"
   xmlns:cc="http://creativecommons.org/ns#"
   xmlns:rdf="http://www.w3.org/1999/02/22-rdf-syntax-ns#"
   xmlns:svg="http://www.w3.org/2000/svg"
   xmlns="http://www.w3.org/2000/svg"
   xmlns:sodipodi="http://sodipodi.sourceforge.net/DTD/sodipodi-0.dtd"
   xmlns:inkscape="http://www.inkscape.org/namespaces/inkscape"
   version="1.1"
   width="39.969002"
   height="12.08"
   id="svg277"
   sodipodi:docname="iPhone.svg"
   inkscape:version="0.92.4 5da689c313, 2019-01-14">
  <metadata
     id="metadata283">
    <rdf:RDF>
      <cc:Work
         rdf:about="">
        <dc:format>image/svg+xml</dc:format>
        <dc:type
           rdf:resource="http://purl.org/dc/dcmitype/StillImage" />
        <dc:title></dc:title>
      </cc:Work>
    </rdf:RDF>
  </metadata>
  <defs
     id="defs281" />
  <sodipodi:namedview
     pagecolor="#ffffff"
     bordercolor="#666666"
     borderopacity="1"
     objecttolerance="10"
     gridtolerance="10"
     guidetolerance="10"
     inkscape:pageopacity="0"
     inkscape:pageshadow="2"
     inkscape:window-width="640"
     inkscape:window-height="480"
     id="namedview279"
     showgrid="false"
     inkscape:zoom="2.1541667"
     inkscape:cx="19.818"
     inkscape:cy="5.3051311"
     inkscape:current-layer="svg277" />
  <g
     id="g134"
     style="fill-opacity:0.5"
     transform="translate(-60.182,-127.916)">
    <path
       d="m 62.03,129.008 c 0,0.271 -0.089,0.49 -0.266,0.658 -0.178,0.168 -0.406,0.252 -0.686,0.252 -0.252,0 -0.464,-0.086 -0.637,-0.259 -0.173,-0.173 -0.259,-0.39 -0.259,-0.651 0,-0.261 0.088,-0.476 0.266,-0.644 0.177,-0.169 0.397,-0.253 0.658,-0.253 0.261,0 0.48,0.084 0.658,0.253 0.177,0.168 0.266,0.383 0.266,0.644 z m -0.168,8.834 H 60.35 v -6.804 h 1.512 z"
       id="path122"
       inkscape:connector-curvature="0" />
    <path
       d="m 69.912,131.149 c 0,0.868 -0.256,1.563 -0.768,2.086 -0.661,0.682 -1.624,1.022 -2.889,1.022 -0.372,0 -0.661,-0.023 -0.865,-0.07 v 3.654 h -1.512 v -9.31 c 0.719,-0.131 1.54,-0.196 2.464,-0.196 1.194,0 2.095,0.257 2.702,0.77 0.578,0.504 0.868,1.186 0.868,2.044 z m -1.498,0.071 c 0,-0.551 -0.176,-0.973 -0.529,-1.267 -0.354,-0.294 -0.846,-0.441 -1.478,-0.441 -0.418,0 -0.757,0.028 -1.017,0.084 v 3.388 c 0.213,0.057 0.506,0.084 0.878,0.084 0.669,0 1.194,-0.163 1.575,-0.489 0.38,-0.328 0.571,-0.78 0.571,-1.359 z"
       id="path124"
       inkscape:connector-curvature="0" />
    <path
       d="m 77.233,137.842 h -1.512 v -3.878 c 0,-1.223 -0.458,-1.834 -1.372,-1.834 -0.7,0 -1.181,0.354 -1.442,1.063 -0.047,0.149 -0.07,0.332 -0.07,0.547 v 4.102 h -1.512 v -9.926 h 1.512 v 4.088 h 0.028 c 0.476,-0.737 1.157,-1.106 2.044,-1.106 0.625,0 1.143,0.206 1.554,0.616 0.513,0.514 0.77,1.274 0.77,2.282 z"
       id="path126"
       inkscape:connector-curvature="0" />
    <path
       d="m 85.326,134.384 c 0,1.046 -0.299,1.904 -0.896,2.576 -0.625,0.69 -1.456,1.036 -2.492,1.036 -0.998,0 -1.794,-0.331 -2.387,-0.994 -0.593,-0.663 -0.889,-1.498 -0.889,-2.506 0,-1.055 0.306,-1.918 0.917,-2.59 0.611,-0.673 1.435,-1.009 2.471,-1.009 0.999,0 1.802,0.332 2.407,0.994 0.579,0.645 0.869,1.475 0.869,2.493 z m -1.568,0.035 c 0,-0.624 -0.136,-1.158 -0.406,-1.605 -0.317,-0.54 -0.77,-0.81 -1.357,-0.81 -0.607,0 -1.069,0.27 -1.387,0.81 -0.271,0.447 -0.406,0.991 -0.406,1.634 0,0.623 0.135,1.158 0.406,1.604 0.326,0.54 0.784,0.81 1.372,0.81 0.579,0 1.031,-0.274 1.358,-0.823 0.279,-0.457 0.42,-0.997 0.42,-1.62 z"
       id="path128"
       inkscape:connector-curvature="0" />
    <path
       d="m 92.689,137.842 h -1.512 v -3.906 c 0,-1.204 -0.457,-1.806 -1.372,-1.806 -0.448,0 -0.812,0.166 -1.093,0.497 -0.279,0.331 -0.42,0.721 -0.42,1.169 v 4.046 H 86.78 v -4.858 c 0,-0.597 -0.019,-1.245 -0.056,-1.945 h 1.33 l 0.069,1.05 h 0.043 c 0.177,-0.327 0.438,-0.598 0.783,-0.812 0.41,-0.252 0.868,-0.378 1.372,-0.378 0.635,0 1.162,0.206 1.582,0.616 0.522,0.504 0.784,1.256 0.784,2.254 v 4.073 z"
       id="path130"
       inkscape:connector-curvature="0" />
    <path
       d="m 100.151,134.118 c 0,0.271 -0.019,0.499 -0.056,0.686 H 95.56 c 0.019,0.672 0.238,1.186 0.658,1.54 0.382,0.317 0.877,0.476 1.483,0.476 0.672,0 1.283,-0.106 1.834,-0.321 l 0.238,1.05 c -0.645,0.28 -1.404,0.42 -2.281,0.42 -1.055,0 -1.884,-0.311 -2.485,-0.931 -0.603,-0.621 -0.903,-1.454 -0.903,-2.499 0,-1.027 0.28,-1.881 0.84,-2.562 0.588,-0.728 1.381,-1.092 2.381,-1.092 0.979,0 1.721,0.364 2.226,1.092 0.4,0.578 0.6,1.292 0.6,2.141 z m -1.442,-0.392 c 0.01,-0.448 -0.088,-0.835 -0.293,-1.162 -0.262,-0.42 -0.663,-0.63 -1.205,-0.63 -0.494,0 -0.896,0.206 -1.203,0.616 -0.252,0.327 -0.401,0.719 -0.448,1.176 z"
       id="path132"
       inkscape:connector-curvature="0" />
  </g>
  <g
     id="g148"
     style="fill-opacity:0.17000002"
     transform="translate(-60.182,-127.916)">
    <path
       d="m 62.03,131.008 c 0,0.271 -0.089,0.49 -0.266,0.658 -0.178,0.168 -0.406,0.252 -0.686,0.252 -0.252,0 -0.464,-0.086 -0.637,-0.259 -0.173,-0.173 -0.259,-0.39 -0.259,-0.651 0,-0.261 0.088,-0.476 0.266,-0.644 0.177,-0.169 0.397,-0.253 0.658,-0.253 0.261,0 0.48,0.084 0.658,0.253 0.177,0.168 0.266,0.383 0.266,0.644 z m -0.168,8.834 H 60.35 v -6.804 h 1.512 z"
       id="path136"
       inkscape:connector-curvature="0" />
    <path
       d="m 69.912,133.149 c 0,0.868 -0.256,1.563 -0.768,2.086 -0.661,0.682 -1.624,1.022 -2.889,1.022 -0.372,0 -0.661,-0.023 -0.865,-0.07 v 3.654 h -1.512 v -9.31 c 0.719,-0.131 1.54,-0.196 2.464,-0.196 1.194,0 2.095,0.257 2.702,0.77 0.578,0.504 0.868,1.186 0.868,2.044 z m -1.498,0.071 c 0,-0.551 -0.176,-0.973 -0.529,-1.267 -0.354,-0.294 -0.846,-0.441 -1.478,-0.441 -0.418,0 -0.757,0.028 -1.017,0.084 v 3.388 c 0.213,0.057 0.506,0.084 0.878,0.084 0.669,0 1.194,-0.163 1.575,-0.489 0.38,-0.328 0.571,-0.78 0.571,-1.359 z"
       id="path138"
       inkscape:connector-curvature="0" />
    <path
       d="m 77.233,139.842 h -1.512 v -3.878 c 0,-1.223 -0.458,-1.834 -1.372,-1.834 -0.7,0 -1.181,0.354 -1.442,1.063 -0.047,0.149 -0.07,0.332 -0.07,0.547 v 4.102 h -1.512 v -9.926 h 1.512 v 4.088 h 0.028 c 0.476,-0.737 1.157,-1.106 2.044,-1.106 0.625,0 1.143,0.206 1.554,0.616 0.513,0.514 0.77,1.274 0.77,2.282 z"
       id="path140"
       inkscape:connector-curvature="0" />
    <path
       d="m 85.326,136.384 c 0,1.046 -0.299,1.904 -0.896,2.576 -0.625,0.69 -1.456,1.036 -2.492,1.036 -0.998,0 -1.794,-0.331 -2.387,-0.994 -0.593,-0.663 -0.889,-1.498 -0.889,-2.506 0,-1.055 0.306,-1.918 0.917,-2.59 0.611,-0.673 1.435,-1.009 2.471,-1.009 0.999,0 1.802,0.332 2.407,0.994 0.579,0.645 0.869,1.475 0.869,2.493 z m -1.568,0.035 c 0,-0.624 -0.136,-1.158 -0.406,-1.605 -0.317,-0.54 -0.77,-0.81 -1.357,-0.81 -0.607,0 -1.069,0.27 -1.387,0.81 -0.271,0.447 -0.406,0.991 -0.406,1.634 0,0.623 0.135,1.158 0.406,1.604 0.326,0.54 0.784,0.81 1.372,0.81 0.579,0 1.031,-0.274 1.358,-0.823 0.279,-0.457 0.42,-0.997 0.42,-1.62 z"
       id="path142"
       inkscape:connector-curvature="0" />
    <path
       d="m 92.689,139.842 h -1.512 v -3.906 c 0,-1.204 -0.457,-1.806 -1.372,-1.806 -0.448,0 -0.812,0.166 -1.093,0.497 -0.279,0.331 -0.42,0.721 -0.42,1.169 v 4.046 H 86.78 v -4.858 c 0,-0.597 -0.019,-1.245 -0.056,-1.945 h 1.33 l 0.069,1.05 h 0.043 c 0.177,-0.327 0.438,-0.598 0.783,-0.812 0.41,-0.252 0.868,-0.378 1.372,-0.378 0.635,0 1.162,0.206 1.582,0.616 0.522,0.504 0.784,1.256 0.784,2.254 v 4.073 z"
       id="path144"
       inkscape:connector-curvature="0" />
    <path
       d="m 100.151,136.118 c 0,0.271 -0.019,0.499 -0.056,0.686 H 95.56 c 0.019,0.672 0.238,1.186 0.658,1.54 0.382,0.317 0.877,0.476 1.483,0.476 0.672,0 1.283,-0.106 1.834,-0.321 l 0.238,1.05 c -0.645,0.28 -1.404,0.42 -2.281,0.42 -1.055,0 -1.884,-0.311 -2.485,-0.931 -0.603,-0.621 -0.903,-1.454 -0.903,-2.499 0,-1.027 0.28,-1.881 0.84,-2.562 0.588,-0.728 1.381,-1.092 2.381,-1.092 0.979,0 1.721,0.364 2.226,1.092 0.4,0.578 0.6,1.292 0.6,2.141 z m -1.442,-0.392 c 0.01,-0.448 -0.088,-0.835 -0.293,-1.162 -0.262,-0.42 -0.663,-0.63 -1.205,-0.63 -0.494,0 -0.896,0.206 -1.203,0.616 -0.252,0.327 -0.401,0.719 -0.448,1.176 z"
       id="path146"
       inkscape:connector-curvature="0" />
  </g>
  <g
     id="g162"
     transform="translate(-60.182,-127.916)">
    <path
       d="m 62.03,130.008 c 0,0.271 -0.089,0.49 -0.266,0.658 -0.178,0.168 -0.406,0.252 -0.686,0.252 -0.252,0 -0.464,-0.086 -0.637,-0.259 -0.173,-0.173 -0.259,-0.39 -0.259,-0.651 0,-0.261 0.088,-0.476 0.266,-0.644 0.177,-0.169 0.397,-0.253 0.658,-0.253 0.261,0 0.48,0.084 0.658,0.253 0.177,0.168 0.266,0.383 0.266,0.644 z m -0.168,8.834 H 60.35 v -6.804 h 1.512 z"
       id="path150"
       inkscape:connector-curvature="0"
       style="fill:#ffffff" />
    <path
       d="m 69.912,132.149 c 0,0.868 -0.256,1.563 -0.768,2.086 -0.661,0.682 -1.624,1.022 -2.889,1.022 -0.372,0 -0.661,-0.023 -0.865,-0.07 v 3.654 h -1.512 v -9.31 c 0.719,-0.131 1.54,-0.196 2.464,-0.196 1.194,0 2.095,0.257 2.702,0.77 0.578,0.504 0.868,1.186 0.868,2.044 z m -1.498,0.071 c 0,-0.551 -0.176,-0.973 -0.529,-1.267 -0.354,-0.294 -0.846,-0.441 -1.478,-0.441 -0.418,0 -0.757,0.028 -1.017,0.084 v 3.388 c 0.213,0.057 0.506,0.084 0.878,0.084 0.669,0 1.194,-0.163 1.575,-0.489 0.38,-0.328 0.571,-0.78 0.571,-1.359 z"
       id="path152"
       inkscape:connector-curvature="0"
       style="fill:#ffffff" />
    <path
       d="m 77.233,138.842 h -1.512 v -3.878 c 0,-1.223 -0.458,-1.834 -1.372,-1.834 -0.7,0 -1.181,0.354 -1.442,1.063 -0.047,0.149 -0.07,0.332 -0.07,0.547 v 4.102 h -1.512 v -9.926 h 1.512 v 4.088 h 0.028 c 0.476,-0.737 1.157,-1.106 2.044,-1.106 0.625,0 1.143,0.206 1.554,0.616 0.513,0.514 0.77,1.274 0.77,2.282 z"
       id="path154"
       inkscape:connector-curvature="0"
       style="fill:#ffffff" />
    <path
       d="m 85.326,135.384 c 0,1.046 -0.299,1.904 -0.896,2.576 -0.625,0.69 -1.456,1.036 -2.492,1.036 -0.998,0 -1.794,-0.331 -2.387,-0.994 -0.593,-0.663 -0.889,-1.498 -0.889,-2.506 0,-1.055 0.306,-1.918 0.917,-2.59 0.611,-0.673 1.435,-1.009 2.471,-1.009 0.999,0 1.802,0.332 2.407,0.994 0.579,0.645 0.869,1.475 0.869,2.493 z m -1.568,0.035 c 0,-0.624 -0.136,-1.158 -0.406,-1.605 -0.317,-0.54 -0.77,-0.81 -1.357,-0.81 -0.607,0 -1.069,0.27 -1.387,0.81 -0.271,0.447 -0.406,0.991 -0.406,1.634 0,0.623 0.135,1.158 0.406,1.604 0.326,0.54 0.784,0.81 1.372,0.81 0.579,0 1.031,-0.274 1.358,-0.823 0.279,-0.457 0.42,-0.997 0.42,-1.62 z"
       id="path156"
       inkscape:connector-curvature="0"
       style="fill:#ffffff" />
    <path
       d="m 92.689,138.842 h -1.512 v -3.906 c 0,-1.204 -0.457,-1.806 -1.372,-1.806 -0.448,0 -0.812,0.166 -1.093,0.497 -0.279,0.331 -0.42,0.721 -0.42,1.169 v 4.046 H 86.78 v -4.858 c 0,-0.597 -0.019,-1.245 -0.056,-1.945 h 1.33 l 0.069,1.05 h 0.043 c 0.177,-0.327 0.438,-0.598 0.783,-0.812 0.41,-0.252 0.868,-0.378 1.372,-0.378 0.635,0 1.162,0.206 1.582,0.616 0.522,0.504 0.784,1.256 0.784,2.254 v 4.073 z"
       id="path158"
       inkscape:connector-curvature="0"
       style="fill:#ffffff" />
    <path
       d="m 100.151,135.118 c 0,0.271 -0.019,0.499 -0.056,0.686 H 95.56 c 0.019,0.672 0.238,1.186 0.658,1.54 0.382,0.317 0.877,0.476 1.483,0.476 0.672,0 1.283,-0.106 1.834,-0.321 l 0.238,1.05 c -0.645,0.28 -1.404,0.42 -2.281,0.42 -1.055,0 -1.884,-0.311 -2.485,-0.931 -0.603,-0.621 -0.903,-1.454 -0.903,-2.499 0,-1.027 0.28,-1.881 0.84,-2.562 0.588,-0.728 1.381,-1.092 2.381,-1.092 0.979,0 1.721,0.364 2.226,1.092 0.4,0.578 0.6,1.292 0.6,2.141 z m -1.442,-0.392 c 0.01,-0.448 -0.088,-0.835 -0.293,-1.162 -0.262,-0.42 -0.663,-0.63 -1.205,-0.63 -0.494,0 -0.896,0.206 -1.203,0.616 -0.252,0.327 -0.401,0.719 -0.448,1.176 z"
       id="path160"
       inkscape:connector-curvature="0"
       style="fill:#ffffff" />
  </g>
</svg>
