<?xml version="1.0" encoding="UTF-8" standalone="no"?>
<svg
   xmlns:dc="http://purl.org/dc/elements/1.1/"
   xmlns:cc="http://creativecommons.org/ns#"
   xmlns:rdf="http://www.w3.org/1999/02/22-rdf-syntax-ns#"
   xmlns:svg="http://www.w3.org/2000/svg"
   xmlns="http://www.w3.org/2000/svg"
   xmlns:sodipodi="http://sodipodi.sourceforge.net/DTD/sodipodi-0.dtd"
   xmlns:inkscape="http://www.inkscape.org/namespaces/inkscape"
   version="1.1"
   width="24.402"
   height="12.08"
   id="svg277"
   sodipodi:docname="iPod.svg"
   inkscape:version="0.92.4 5da689c313, 2019-01-14">
  <metadata
     id="metadata283">
    <rdf:RDF>
      <cc:Work
         rdf:about="">
        <dc:format>image/svg+xml</dc:format>
        <dc:type
           rdf:resource="http://purl.org/dc/dcmitype/StillImage" />
        <dc:title></dc:title>
      </cc:Work>
    </rdf:RDF>
  </metadata>
  <defs
     id="defs281" />
  <sodipodi:namedview
     pagecolor="#ffffff"
     bordercolor="#666666"
     borderopacity="1"
     objecttolerance="10"
     gridtolerance="10"
     guidetolerance="10"
     inkscape:pageopacity="0"
     inkscape:pageshadow="2"
     inkscape:window-width="640"
     inkscape:window-height="480"
     id="namedview279"
     showgrid="false"
     inkscape:zoom="1.5232259"
     inkscape:cx="-144.09725"
     inkscape:cy="-62.578298"
     inkscape:current-layer="svg277" />
  <g
     id="g172"
     style="fill-opacity:0.5"
     transform="translate(-67.749,-97.891)">
    <path
       d="m 69.597,98.983 c 0,0.271 -0.089,0.49 -0.266,0.658 -0.178,0.168 -0.406,0.252 -0.686,0.252 -0.252,0 -0.464,-0.086 -0.637,-0.259 -0.173,-0.173 -0.259,-0.39 -0.259,-0.651 0,-0.261 0.088,-0.476 0.266,-0.644 0.177,-0.169 0.397,-0.253 0.658,-0.253 0.261,0 0.48,0.084 0.658,0.253 0.177,0.169 0.266,0.384 0.266,0.644 z m -0.168,8.834 h -1.512 v -6.804 h 1.512 z"
       id="path164"
       inkscape:connector-curvature="0" />
    <path
       d="m 77.479,101.125 c 0,0.868 -0.256,1.563 -0.768,2.086 -0.661,0.682 -1.624,1.022 -2.889,1.022 -0.372,0 -0.661,-0.023 -0.865,-0.07 v 3.654 h -1.512 v -9.31 c 0.719,-0.131 1.54,-0.196 2.464,-0.196 1.194,0 2.095,0.257 2.702,0.77 0.578,0.504 0.868,1.186 0.868,2.044 z m -1.498,0.07 c 0,-0.551 -0.176,-0.973 -0.529,-1.267 -0.354,-0.294 -0.846,-0.441 -1.478,-0.441 -0.418,0 -0.757,0.028 -1.017,0.084 v 3.388 c 0.213,0.057 0.506,0.084 0.878,0.084 0.669,0 1.194,-0.163 1.575,-0.489 0.381,-0.327 0.571,-0.78 0.571,-1.359 z"
       id="path166"
       inkscape:connector-curvature="0" />
    <path
       d="m 84.633,104.359 c 0,1.046 -0.299,1.904 -0.896,2.576 -0.626,0.69 -1.456,1.036 -2.492,1.036 -0.999,0 -1.794,-0.331 -2.387,-0.994 -0.593,-0.663 -0.889,-1.498 -0.889,-2.506 0,-1.055 0.306,-1.918 0.917,-2.59 0.611,-0.673 1.435,-1.009 2.471,-1.009 0.998,0 1.801,0.332 2.408,0.994 0.579,0.646 0.868,1.476 0.868,2.493 z m -1.568,0.036 c 0,-0.624 -0.136,-1.158 -0.406,-1.605 -0.317,-0.54 -0.771,-0.81 -1.358,-0.81 -0.606,0 -1.068,0.27 -1.385,0.81 -0.271,0.447 -0.406,0.991 -0.406,1.634 0,0.623 0.135,1.158 0.406,1.604 0.326,0.54 0.784,0.81 1.372,0.81 0.578,0 1.031,-0.274 1.358,-0.823 0.28,-0.457 0.419,-0.997 0.419,-1.62 z"
       id="path168"
       inkscape:connector-curvature="0" />
    <path
       d="m 92.151,107.817 h -1.345 l -0.069,-1.092 h -0.042 c -0.43,0.831 -1.158,1.246 -2.184,1.246 -0.822,0 -1.504,-0.322 -2.045,-0.966 -0.541,-0.645 -0.812,-1.479 -0.812,-2.507 0,-1.101 0.296,-1.992 0.888,-2.674 0.572,-0.635 1.275,-0.952 2.111,-0.952 0.92,0 1.562,0.309 1.929,0.925 v -3.906 h 1.513 v 8.092 c 0.001,0.663 0.018,1.275 0.056,1.834 z m -1.568,-2.87 v -1.134 c 0,-0.196 -0.015,-0.354 -0.042,-0.477 -0.084,-0.363 -0.268,-0.669 -0.549,-0.917 -0.281,-0.247 -0.618,-0.37 -1.012,-0.37 -0.562,0 -1.005,0.224 -1.328,0.672 -0.323,0.447 -0.485,1.021 -0.485,1.722 0,0.672 0.155,1.218 0.464,1.638 0.328,0.448 0.769,0.672 1.322,0.672 0.496,0 0.895,-0.187 1.194,-0.56 0.291,-0.344 0.436,-0.76 0.436,-1.246 z"
       id="path170"
       inkscape:connector-curvature="0" />
  </g>
  <g
     id="g182"
     style="fill-opacity:0.17000002"
     transform="translate(-67.749,-97.891)">
    <path
       d="m 69.597,100.983 c 0,0.271 -0.089,0.49 -0.266,0.658 -0.178,0.168 -0.406,0.252 -0.686,0.252 -0.252,0 -0.464,-0.086 -0.637,-0.259 -0.173,-0.173 -0.259,-0.39 -0.259,-0.651 0,-0.261 0.088,-0.476 0.266,-0.644 0.177,-0.169 0.397,-0.253 0.658,-0.253 0.261,0 0.48,0.084 0.658,0.253 0.177,0.169 0.266,0.384 0.266,0.644 z m -0.168,8.834 h -1.512 v -6.804 h 1.512 z"
       id="path174"
       inkscape:connector-curvature="0" />
    <path
       d="m 77.479,103.125 c 0,0.868 -0.256,1.563 -0.768,2.086 -0.661,0.682 -1.624,1.022 -2.889,1.022 -0.372,0 -0.661,-0.023 -0.865,-0.07 v 3.654 h -1.512 v -9.31 c 0.719,-0.131 1.54,-0.196 2.464,-0.196 1.194,0 2.095,0.257 2.702,0.77 0.578,0.504 0.868,1.186 0.868,2.044 z m -1.498,0.07 c 0,-0.551 -0.176,-0.973 -0.529,-1.267 -0.354,-0.294 -0.846,-0.441 -1.478,-0.441 -0.418,0 -0.757,0.028 -1.017,0.084 v 3.388 c 0.213,0.057 0.506,0.084 0.878,0.084 0.669,0 1.194,-0.163 1.575,-0.489 0.381,-0.327 0.571,-0.78 0.571,-1.359 z"
       id="path176"
       inkscape:connector-curvature="0" />
    <path
       d="m 84.633,106.359 c 0,1.046 -0.299,1.904 -0.896,2.576 -0.626,0.69 -1.456,1.036 -2.492,1.036 -0.999,0 -1.794,-0.331 -2.387,-0.994 -0.593,-0.663 -0.889,-1.498 -0.889,-2.506 0,-1.055 0.306,-1.918 0.917,-2.59 0.611,-0.673 1.435,-1.009 2.471,-1.009 0.998,0 1.801,0.332 2.408,0.994 0.579,0.646 0.868,1.476 0.868,2.493 z m -1.568,0.036 c 0,-0.624 -0.136,-1.158 -0.406,-1.605 -0.317,-0.54 -0.771,-0.81 -1.358,-0.81 -0.606,0 -1.068,0.27 -1.385,0.81 -0.271,0.447 -0.406,0.991 -0.406,1.634 0,0.623 0.135,1.158 0.406,1.604 0.326,0.54 0.784,0.81 1.372,0.81 0.578,0 1.031,-0.274 1.358,-0.823 0.28,-0.457 0.419,-0.997 0.419,-1.62 z"
       id="path178"
       inkscape:connector-curvature="0" />
    <path
       d="m 92.151,109.817 h -1.345 l -0.069,-1.092 h -0.042 c -0.43,0.831 -1.158,1.246 -2.184,1.246 -0.822,0 -1.504,-0.322 -2.045,-0.966 -0.541,-0.645 -0.812,-1.479 -0.812,-2.507 0,-1.101 0.296,-1.992 0.888,-2.674 0.572,-0.635 1.275,-0.952 2.111,-0.952 0.92,0 1.562,0.309 1.929,0.925 v -3.906 h 1.513 v 8.092 c 0.001,0.663 0.018,1.275 0.056,1.834 z m -1.568,-2.87 v -1.134 c 0,-0.196 -0.015,-0.354 -0.042,-0.477 -0.084,-0.363 -0.268,-0.669 -0.549,-0.917 -0.281,-0.247 -0.618,-0.37 -1.012,-0.37 -0.562,0 -1.005,0.224 -1.328,0.672 -0.323,0.447 -0.485,1.021 -0.485,1.722 0,0.672 0.155,1.218 0.464,1.638 0.328,0.448 0.769,0.672 1.322,0.672 0.496,0 0.895,-0.187 1.194,-0.56 0.291,-0.344 0.436,-0.76 0.436,-1.246 z"
       id="path180"
       inkscape:connector-curvature="0" />
  </g>
  <g
     id="g192"
     transform="translate(-67.749,-97.891)">
    <path
       d="m 69.597,99.983 c 0,0.271 -0.089,0.49 -0.266,0.658 -0.178,0.168 -0.406,0.252 -0.686,0.252 -0.252,0 -0.464,-0.086 -0.637,-0.259 -0.173,-0.173 -0.259,-0.39 -0.259,-0.651 0,-0.261 0.088,-0.476 0.266,-0.644 0.177,-0.169 0.397,-0.253 0.658,-0.253 0.261,0 0.48,0.084 0.658,0.253 0.177,0.169 0.266,0.384 0.266,0.644 z m -0.168,8.834 h -1.512 v -6.804 h 1.512 z"
       id="path184"
       inkscape:connector-curvature="0"
       style="fill:#ffffff" />
    <path
       d="m 77.479,102.125 c 0,0.868 -0.256,1.563 -0.768,2.086 -0.661,0.682 -1.624,1.022 -2.889,1.022 -0.372,0 -0.661,-0.023 -0.865,-0.07 v 3.654 h -1.512 v -9.31 c 0.719,-0.131 1.54,-0.196 2.464,-0.196 1.194,0 2.095,0.257 2.702,0.77 0.578,0.504 0.868,1.186 0.868,2.044 z m -1.498,0.07 c 0,-0.551 -0.176,-0.973 -0.529,-1.267 -0.354,-0.294 -0.846,-0.441 -1.478,-0.441 -0.418,0 -0.757,0.028 -1.017,0.084 v 3.388 c 0.213,0.057 0.506,0.084 0.878,0.084 0.669,0 1.194,-0.163 1.575,-0.489 0.381,-0.327 0.571,-0.78 0.571,-1.359 z"
       id="path186"
       inkscape:connector-curvature="0"
       style="fill:#ffffff" />
    <path
       d="m 84.633,105.359 c 0,1.046 -0.299,1.904 -0.896,2.576 -0.626,0.69 -1.456,1.036 -2.492,1.036 -0.999,0 -1.794,-0.331 -2.387,-0.994 -0.593,-0.663 -0.889,-1.498 -0.889,-2.506 0,-1.055 0.306,-1.918 0.917,-2.59 0.611,-0.673 1.435,-1.009 2.471,-1.009 0.998,0 1.801,0.332 2.408,0.994 0.579,0.646 0.868,1.476 0.868,2.493 z m -1.568,0.036 c 0,-0.624 -0.136,-1.158 -0.406,-1.605 -0.317,-0.54 -0.771,-0.81 -1.358,-0.81 -0.606,0 -1.068,0.27 -1.385,0.81 -0.271,0.447 -0.406,0.991 -0.406,1.634 0,0.623 0.135,1.158 0.406,1.604 0.326,0.54 0.784,0.81 1.372,0.81 0.578,0 1.031,-0.274 1.358,-0.823 0.28,-0.457 0.419,-0.997 0.419,-1.62 z"
       id="path188"
       inkscape:connector-curvature="0"
       style="fill:#ffffff" />
    <path
       d="m 92.151,108.817 h -1.345 l -0.069,-1.092 h -0.042 c -0.43,0.831 -1.158,1.246 -2.184,1.246 -0.822,0 -1.504,-0.322 -2.045,-0.966 -0.541,-0.645 -0.812,-1.479 -0.812,-2.507 0,-1.101 0.296,-1.992 0.888,-2.674 0.572,-0.635 1.275,-0.952 2.111,-0.952 0.92,0 1.562,0.309 1.929,0.925 v -3.906 h 1.513 v 8.092 c 0.001,0.663 0.018,1.275 0.056,1.834 z m -1.568,-2.87 v -1.134 c 0,-0.196 -0.015,-0.354 -0.042,-0.477 -0.084,-0.363 -0.268,-0.669 -0.549,-0.917 -0.281,-0.247 -0.618,-0.37 -1.012,-0.37 -0.562,0 -1.005,0.224 -1.328,0.672 -0.323,0.447 -0.485,1.021 -0.485,1.722 0,0.672 0.155,1.218 0.464,1.638 0.328,0.448 0.769,0.672 1.322,0.672 0.496,0 0.895,-0.187 1.194,-0.56 0.291,-0.344 0.436,-0.76 0.436,-1.246 z"
       id="path190"
       inkscape:connector-curvature="0"
       style="fill:#ffffff" />
  </g>
</svg>
