<?xml version="1.0" encoding="UTF-8" standalone="no"?>
<svg
   xmlns:dc="http://purl.org/dc/elements/1.1/"
   xmlns:cc="http://creativecommons.org/ns#"
   xmlns:rdf="http://www.w3.org/1999/02/22-rdf-syntax-ns#"
   xmlns:svg="http://www.w3.org/2000/svg"
   xmlns="http://www.w3.org/2000/svg"
   xmlns:sodipodi="http://sodipodi.sourceforge.net/DTD/sodipodi-0.dtd"
   xmlns:inkscape="http://www.inkscape.org/namespaces/inkscape"
   version="1.1"
   width="36.442001"
   height="11.885"
   id="svg277"
   sodipodi:docname="iTunes.svg"
   inkscape:version="0.92.4 5da689c313, 2019-01-14">
  <metadata
     id="metadata283">
    <rdf:RDF>
      <cc:Work
         rdf:about="">
        <dc:format>image/svg+xml</dc:format>
        <dc:type
           rdf:resource="http://purl.org/dc/dcmitype/StillImage" />
        <dc:title></dc:title>
      </cc:Work>
    </rdf:RDF>
  </metadata>
  <defs
     id="defs281" />
  <sodipodi:namedview
     pagecolor="#ffffff"
     bordercolor="#666666"
     borderopacity="1"
     objecttolerance="10"
     gridtolerance="10"
     guidetolerance="10"
     inkscape:pageopacity="0"
     inkscape:pageshadow="2"
     inkscape:window-width="640"
     inkscape:window-height="480"
     id="namedview279"
     showgrid="false"
     inkscape:zoom="2.1541667"
     inkscape:cx="-110.26"
     inkscape:cy="-30.244207"
     inkscape:current-layer="svg277" />
  <g
     id="g62"
     style="fill-opacity:0.5"
     transform="translate(-61.939,-188.097)">
    <path
       d="m 63.787,188.994 c 0,0.271 -0.089,0.49 -0.266,0.658 -0.178,0.168 -0.406,0.252 -0.686,0.252 -0.252,0 -0.464,-0.086 -0.637,-0.259 -0.173,-0.173 -0.259,-0.39 -0.259,-0.651 0,-0.261 0.088,-0.476 0.266,-0.644 0.177,-0.169 0.397,-0.253 0.658,-0.253 0.261,0 0.48,0.084 0.658,0.253 0.177,0.169 0.266,0.383 0.266,0.644 z m -0.168,8.834 h -1.512 v -6.804 h 1.512 z"
       id="path50"
       inkscape:connector-curvature="0" />
    <path
       d="m 71.431,189.666 h -2.716 v 8.162 h -1.512 v -8.162 h -2.688 v -1.273 h 6.916 z"
       id="path52"
       inkscape:connector-curvature="0" />
    <path
       d="m 77.661,197.828 h -1.33 l -0.084,-1.036 h -0.028 c -0.476,0.794 -1.195,1.19 -2.156,1.19 -0.672,0 -1.208,-0.21 -1.61,-0.63 -0.476,-0.514 -0.714,-1.288 -0.714,-2.324 v -4.004 h 1.512 v 3.752 c 0,1.307 0.448,1.96 1.344,1.96 0.672,0 1.139,-0.327 1.4,-0.98 0.065,-0.168 0.098,-0.359 0.098,-0.574 v -4.157 h 1.512 v 4.844 c 0,0.643 0.019,1.297 0.056,1.959 z"
       id="path54"
       inkscape:connector-curvature="0" />
    <path
       d="m 85.431,197.828 h -1.513 v -3.906 c 0,-1.204 -0.457,-1.806 -1.371,-1.806 -0.448,0 -0.812,0.166 -1.092,0.497 -0.28,0.331 -0.42,0.721 -0.42,1.169 v 4.046 h -1.513 v -4.858 c 0,-0.597 -0.019,-1.245 -0.056,-1.945 h 1.33 l 0.07,1.05 h 0.041 c 0.178,-0.327 0.439,-0.598 0.785,-0.812 0.41,-0.252 0.867,-0.378 1.371,-0.378 0.635,0 1.162,0.206 1.582,0.616 0.523,0.504 0.784,1.256 0.784,2.254 v 4.073 z"
       id="path56"
       inkscape:connector-curvature="0" />
    <path
       d="m 92.893,194.104 c 0,0.271 -0.019,0.499 -0.056,0.686 h -4.536 c 0.019,0.672 0.238,1.186 0.658,1.54 0.383,0.317 0.877,0.476 1.484,0.476 0.672,0 1.283,-0.106 1.834,-0.321 l 0.237,1.05 c -0.644,0.28 -1.405,0.42 -2.282,0.42 -1.055,0 -1.883,-0.311 -2.484,-0.931 -0.602,-0.621 -0.903,-1.454 -0.903,-2.499 0,-1.027 0.28,-1.881 0.841,-2.562 0.588,-0.728 1.381,-1.092 2.379,-1.092 0.98,0 1.723,0.364 2.227,1.092 0.399,0.578 0.601,1.292 0.601,2.141 z m -1.442,-0.392 c 0.009,-0.448 -0.09,-0.835 -0.295,-1.162 -0.261,-0.42 -0.662,-0.63 -1.203,-0.63 -0.495,0 -0.896,0.206 -1.204,0.616 -0.253,0.327 -0.401,0.719 -0.448,1.176 z"
       id="path58"
       inkscape:connector-curvature="0" />
    <path
       d="m 98.381,195.868 c 0,0.635 -0.234,1.144 -0.7,1.526 -0.467,0.383 -1.11,0.573 -1.933,0.573 -0.774,0 -1.432,-0.153 -1.974,-0.462 l 0.322,-1.12 c 0.522,0.317 1.077,0.477 1.666,0.477 0.774,0 1.161,-0.285 1.161,-0.854 0,-0.252 -0.084,-0.459 -0.252,-0.623 -0.168,-0.163 -0.467,-0.324 -0.896,-0.482 -1.214,-0.448 -1.819,-1.102 -1.819,-1.96 0,-0.588 0.224,-1.078 0.672,-1.471 0.447,-0.392 1.04,-0.588 1.777,-0.588 0.672,0 1.246,0.136 1.723,0.406 l -0.322,1.078 c -0.439,-0.261 -0.9,-0.392 -1.387,-0.392 -0.316,0 -0.564,0.074 -0.741,0.224 -0.178,0.149 -0.267,0.341 -0.267,0.574 0,0.233 0.094,0.425 0.28,0.573 0.159,0.141 0.467,0.295 0.925,0.463 1.177,0.448 1.765,1.134 1.765,2.058 z"
       id="path60"
       inkscape:connector-curvature="0" />
  </g>
  <g
     id="g76"
     style="fill-opacity:0.17000002"
     transform="translate(-61.939,-188.097)">
    <path
       d="m 63.787,190.994 c 0,0.271 -0.089,0.49 -0.266,0.658 -0.178,0.168 -0.406,0.252 -0.686,0.252 -0.252,0 -0.464,-0.086 -0.637,-0.259 -0.173,-0.173 -0.259,-0.39 -0.259,-0.651 0,-0.261 0.088,-0.476 0.266,-0.644 0.177,-0.169 0.397,-0.253 0.658,-0.253 0.261,0 0.48,0.084 0.658,0.253 0.177,0.169 0.266,0.383 0.266,0.644 z m -0.168,8.834 h -1.512 v -6.804 h 1.512 z"
       id="path64"
       inkscape:connector-curvature="0" />
    <path
       d="m 71.431,191.666 h -2.716 v 8.162 h -1.512 v -8.162 h -2.688 v -1.273 h 6.916 z"
       id="path66"
       inkscape:connector-curvature="0" />
    <path
       d="m 77.661,199.828 h -1.33 l -0.084,-1.036 h -0.028 c -0.476,0.794 -1.195,1.19 -2.156,1.19 -0.672,0 -1.208,-0.21 -1.61,-0.63 -0.476,-0.514 -0.714,-1.288 -0.714,-2.324 v -4.004 h 1.512 v 3.752 c 0,1.307 0.448,1.96 1.344,1.96 0.672,0 1.139,-0.327 1.4,-0.98 0.065,-0.168 0.098,-0.359 0.098,-0.574 v -4.157 h 1.512 v 4.844 c 0,0.643 0.019,1.297 0.056,1.959 z"
       id="path68"
       inkscape:connector-curvature="0" />
    <path
       d="m 85.431,199.828 h -1.513 v -3.906 c 0,-1.204 -0.457,-1.806 -1.371,-1.806 -0.448,0 -0.812,0.166 -1.092,0.497 -0.28,0.331 -0.42,0.721 -0.42,1.169 v 4.046 h -1.513 v -4.858 c 0,-0.597 -0.019,-1.245 -0.056,-1.945 h 1.33 l 0.07,1.05 h 0.041 c 0.178,-0.327 0.439,-0.598 0.785,-0.812 0.41,-0.252 0.867,-0.378 1.371,-0.378 0.635,0 1.162,0.206 1.582,0.616 0.523,0.504 0.784,1.256 0.784,2.254 v 4.073 z"
       id="path70"
       inkscape:connector-curvature="0" />
    <path
       d="m 92.893,196.104 c 0,0.271 -0.019,0.499 -0.056,0.686 h -4.536 c 0.019,0.672 0.238,1.186 0.658,1.54 0.383,0.317 0.877,0.476 1.484,0.476 0.672,0 1.283,-0.106 1.834,-0.321 l 0.237,1.05 c -0.644,0.28 -1.405,0.42 -2.282,0.42 -1.055,0 -1.883,-0.311 -2.484,-0.931 -0.602,-0.621 -0.903,-1.454 -0.903,-2.499 0,-1.027 0.28,-1.881 0.841,-2.562 0.588,-0.728 1.381,-1.092 2.379,-1.092 0.98,0 1.723,0.364 2.227,1.092 0.399,0.578 0.601,1.292 0.601,2.141 z m -1.442,-0.392 c 0.009,-0.448 -0.09,-0.835 -0.295,-1.162 -0.261,-0.42 -0.662,-0.63 -1.203,-0.63 -0.495,0 -0.896,0.206 -1.204,0.616 -0.253,0.327 -0.401,0.719 -0.448,1.176 z"
       id="path72"
       inkscape:connector-curvature="0" />
    <path
       d="m 98.381,197.868 c 0,0.635 -0.234,1.144 -0.7,1.526 -0.467,0.383 -1.11,0.573 -1.933,0.573 -0.774,0 -1.432,-0.153 -1.974,-0.462 l 0.322,-1.12 c 0.522,0.317 1.077,0.477 1.666,0.477 0.774,0 1.161,-0.285 1.161,-0.854 0,-0.252 -0.084,-0.459 -0.252,-0.623 -0.168,-0.163 -0.467,-0.324 -0.896,-0.482 -1.214,-0.448 -1.819,-1.102 -1.819,-1.96 0,-0.588 0.224,-1.078 0.672,-1.471 0.447,-0.392 1.04,-0.588 1.777,-0.588 0.672,0 1.246,0.136 1.723,0.406 l -0.322,1.078 c -0.439,-0.261 -0.9,-0.392 -1.387,-0.392 -0.316,0 -0.564,0.074 -0.741,0.224 -0.178,0.149 -0.267,0.341 -0.267,0.574 0,0.233 0.094,0.425 0.28,0.573 0.159,0.141 0.467,0.295 0.925,0.463 1.177,0.448 1.765,1.134 1.765,2.058 z"
       id="path74"
       inkscape:connector-curvature="0" />
  </g>
  <g
     id="g90"
     transform="translate(-61.939,-188.097)">
    <path
       d="m 63.787,189.994 c 0,0.271 -0.089,0.49 -0.266,0.658 -0.178,0.168 -0.406,0.252 -0.686,0.252 -0.252,0 -0.464,-0.086 -0.637,-0.259 -0.173,-0.173 -0.259,-0.39 -0.259,-0.651 0,-0.261 0.088,-0.476 0.266,-0.644 0.177,-0.169 0.397,-0.253 0.658,-0.253 0.261,0 0.48,0.084 0.658,0.253 0.177,0.169 0.266,0.383 0.266,0.644 z m -0.168,8.834 h -1.512 v -6.804 h 1.512 z"
       id="path78"
       inkscape:connector-curvature="0"
       style="fill:#ffffff" />
    <path
       d="m 71.431,190.666 h -2.716 v 8.162 h -1.512 v -8.162 h -2.688 v -1.273 h 6.916 z"
       id="path80"
       inkscape:connector-curvature="0"
       style="fill:#ffffff" />
    <path
       d="m 77.661,198.828 h -1.33 l -0.084,-1.036 h -0.028 c -0.476,0.794 -1.195,1.19 -2.156,1.19 -0.672,0 -1.208,-0.21 -1.61,-0.63 -0.476,-0.514 -0.714,-1.288 -0.714,-2.324 v -4.004 h 1.512 v 3.752 c 0,1.307 0.448,1.96 1.344,1.96 0.672,0 1.139,-0.327 1.4,-0.98 0.065,-0.168 0.098,-0.359 0.098,-0.574 v -4.157 h 1.512 v 4.844 c 0,0.643 0.019,1.297 0.056,1.959 z"
       id="path82"
       inkscape:connector-curvature="0"
       style="fill:#ffffff" />
    <path
       d="m 85.431,198.828 h -1.513 v -3.906 c 0,-1.204 -0.457,-1.806 -1.371,-1.806 -0.448,0 -0.812,0.166 -1.092,0.497 -0.28,0.331 -0.42,0.721 -0.42,1.169 v 4.046 h -1.513 v -4.858 c 0,-0.597 -0.019,-1.245 -0.056,-1.945 h 1.33 l 0.07,1.05 h 0.041 c 0.178,-0.327 0.439,-0.598 0.785,-0.812 0.41,-0.252 0.867,-0.378 1.371,-0.378 0.635,0 1.162,0.206 1.582,0.616 0.523,0.504 0.784,1.256 0.784,2.254 v 4.073 z"
       id="path84"
       inkscape:connector-curvature="0"
       style="fill:#ffffff" />
    <path
       d="m 92.893,195.104 c 0,0.271 -0.019,0.499 -0.056,0.686 h -4.536 c 0.019,0.672 0.238,1.186 0.658,1.54 0.383,0.317 0.877,0.476 1.484,0.476 0.672,0 1.283,-0.106 1.834,-0.321 l 0.237,1.05 c -0.644,0.28 -1.405,0.42 -2.282,0.42 -1.055,0 -1.883,-0.311 -2.484,-0.931 -0.602,-0.621 -0.903,-1.454 -0.903,-2.499 0,-1.027 0.28,-1.881 0.841,-2.562 0.588,-0.728 1.381,-1.092 2.379,-1.092 0.98,0 1.723,0.364 2.227,1.092 0.399,0.578 0.601,1.292 0.601,2.141 z m -1.442,-0.392 c 0.009,-0.448 -0.09,-0.835 -0.295,-1.162 -0.261,-0.42 -0.662,-0.63 -1.203,-0.63 -0.495,0 -0.896,0.206 -1.204,0.616 -0.253,0.327 -0.401,0.719 -0.448,1.176 z"
       id="path86"
       inkscape:connector-curvature="0"
       style="fill:#ffffff" />
    <path
       d="m 98.381,196.868 c 0,0.635 -0.234,1.144 -0.7,1.526 -0.467,0.383 -1.11,0.573 -1.933,0.573 -0.774,0 -1.432,-0.153 -1.974,-0.462 l 0.322,-1.12 c 0.522,0.317 1.077,0.477 1.666,0.477 0.774,0 1.161,-0.285 1.161,-0.854 0,-0.252 -0.084,-0.459 -0.252,-0.623 -0.168,-0.163 -0.467,-0.324 -0.896,-0.482 -1.214,-0.448 -1.819,-1.102 -1.819,-1.96 0,-0.588 0.224,-1.078 0.672,-1.471 0.447,-0.392 1.04,-0.588 1.777,-0.588 0.672,0 1.246,0.136 1.723,0.406 l -0.322,1.078 c -0.439,-0.261 -0.9,-0.392 -1.387,-0.392 -0.316,0 -0.564,0.074 -0.741,0.224 -0.178,0.149 -0.267,0.341 -0.267,0.574 0,0.233 0.094,0.425 0.28,0.573 0.159,0.141 0.467,0.295 0.925,0.463 1.177,0.448 1.765,1.134 1.765,2.058 z"
       id="path88"
       inkscape:connector-curvature="0"
       style="fill:#ffffff" />
  </g>
</svg>
