<?xml version="1.0" encoding="UTF-8" standalone="no"?>
<svg
   xmlns:dc="http://purl.org/dc/elements/1.1/"
   xmlns:cc="http://creativecommons.org/ns#"
   xmlns:rdf="http://www.w3.org/1999/02/22-rdf-syntax-ns#"
   xmlns:svg="http://www.w3.org/2000/svg"
   xmlns="http://www.w3.org/2000/svg"
   xmlns:sodipodi="http://sodipodi.sourceforge.net/DTD/sodipodi-0.dtd"
   xmlns:inkscape="http://www.inkscape.org/namespaces/inkscape"
   version="1.1"
   width="23.211"
   height="11.59"
   id="svg277"
   sodipodi:docname="mac.svg"
   inkscape:version="0.92.4 5da689c313, 2019-01-14">
  <metadata
     id="metadata283">
    <rdf:RDF>
      <cc:Work
         rdf:about="">
        <dc:format>image/svg+xml</dc:format>
        <dc:type
           rdf:resource="http://purl.org/dc/dcmitype/StillImage" />
        <dc:title></dc:title>
      </cc:Work>
    </rdf:RDF>
  </metadata>
  <defs
     id="defs281" />
  <sodipodi:namedview
     pagecolor="#ffffff"
     bordercolor="#666666"
     borderopacity="1"
     objecttolerance="10"
     gridtolerance="10"
     guidetolerance="10"
     inkscape:pageopacity="0"
     inkscape:pageshadow="2"
     inkscape:window-width="640"
     inkscape:window-height="480"
     id="namedview279"
     showgrid="false"
     inkscape:zoom="1.5232259"
     inkscape:cx="-11.684251"
     inkscape:cy="-31.21994"
     inkscape:current-layer="svg277" />
  <g
     id="g200"
     style="fill-opacity:0.5"
     transform="translate(-68.612,-68.247)">
    <path
       d="m 78.327,77.683 h -1.47 l -0.196,-3.948 c -0.093,-1.782 -0.135,-3.107 -0.126,-3.976 h -0.042 c -0.299,1.11 -0.667,2.301 -1.106,3.57 l -1.47,4.27 H 72.77 l -1.344,-4.2 c -0.401,-1.269 -0.728,-2.482 -0.98,-3.64 h -0.028 c -0.047,1.419 -0.103,2.768 -0.168,4.046 l -0.224,3.878 h -1.414 l 0.63,-9.436 h 1.946 l 1.358,4.088 c 0.336,1.008 0.63,2.091 0.882,3.248 h 0.042 c 0.299,-1.204 0.616,-2.287 0.952,-3.248 l 1.414,-4.088 h 1.946 z"
       id="path194"
       inkscape:connector-curvature="0" />
    <path
       d="m 85.215,77.683 h -1.357 l -0.113,-0.784 h -0.041 c -0.467,0.626 -1.13,0.938 -1.988,0.938 -0.645,0 -1.162,-0.205 -1.554,-0.616 -0.354,-0.373 -0.532,-0.835 -0.532,-1.386 0,-0.831 0.348,-1.466 1.043,-1.904 0.695,-0.438 1.673,-0.653 2.934,-0.645 V 73.16 c 0,-0.896 -0.473,-1.344 -1.414,-1.344 -0.672,0 -1.266,0.168 -1.779,0.504 l -0.308,-0.994 c 0.634,-0.392 1.415,-0.588 2.338,-0.588 1.782,0 2.674,0.938 2.674,2.814 v 2.506 c -10e-4,0.682 0.031,1.223 0.097,1.625 z m -1.569,-2.338 v -1.05 c -1.67,-0.028 -2.506,0.429 -2.506,1.372 0,0.354 0.098,0.62 0.293,0.798 0.194,0.177 0.44,0.266 0.738,0.266 0.334,0 0.643,-0.104 0.925,-0.314 0.283,-0.21 0.457,-0.479 0.522,-0.806 0.019,-0.075 0.028,-0.164 0.028,-0.266 z"
       id="path196"
       inkscape:connector-curvature="0" />
    <path
       d="m 91.823,71.061 -0.294,1.148 c -0.383,-0.187 -0.821,-0.28 -1.316,-0.28 -0.662,0 -1.188,0.222 -1.574,0.665 -0.388,0.443 -0.582,1.006 -0.582,1.687 0,0.719 0.203,1.288 0.609,1.708 0.406,0.42 0.922,0.63 1.547,0.63 0.467,0 0.924,-0.093 1.372,-0.279 l 0.21,1.134 c -0.494,0.233 -1.119,0.35 -1.876,0.35 -1.036,0 -1.862,-0.314 -2.478,-0.944 -0.616,-0.63 -0.924,-1.473 -0.924,-2.527 0,-1.054 0.33,-1.92 0.994,-2.597 0.662,-0.677 1.553,-1.016 2.674,-1.016 0.635,-0.002 1.18,0.106 1.638,0.321 z"
       id="path198"
       inkscape:connector-curvature="0" />
  </g>
  <g
     id="g208"
     style="fill-opacity:0.17000002"
     transform="translate(-68.612,-68.247)">
    <path
       d="m 78.327,79.683 h -1.47 l -0.196,-3.948 c -0.093,-1.782 -0.135,-3.107 -0.126,-3.976 h -0.042 c -0.299,1.11 -0.667,2.301 -1.106,3.57 l -1.47,4.27 H 72.77 l -1.344,-4.2 c -0.401,-1.269 -0.728,-2.482 -0.98,-3.64 h -0.028 c -0.047,1.419 -0.103,2.768 -0.168,4.046 l -0.224,3.878 h -1.414 l 0.63,-9.436 h 1.946 l 1.358,4.088 c 0.336,1.008 0.63,2.091 0.882,3.248 h 0.042 c 0.299,-1.204 0.616,-2.287 0.952,-3.248 l 1.414,-4.088 h 1.946 z"
       id="path202"
       inkscape:connector-curvature="0" />
    <path
       d="m 85.215,79.683 h -1.357 l -0.113,-0.784 h -0.041 c -0.467,0.626 -1.13,0.938 -1.988,0.938 -0.645,0 -1.162,-0.205 -1.554,-0.616 -0.354,-0.373 -0.532,-0.835 -0.532,-1.386 0,-0.831 0.348,-1.466 1.043,-1.904 0.695,-0.438 1.673,-0.653 2.934,-0.645 V 75.16 c 0,-0.896 -0.473,-1.344 -1.414,-1.344 -0.672,0 -1.266,0.168 -1.779,0.504 l -0.308,-0.994 c 0.634,-0.392 1.415,-0.588 2.338,-0.588 1.782,0 2.674,0.938 2.674,2.814 v 2.506 c -10e-4,0.682 0.031,1.223 0.097,1.625 z m -1.569,-2.338 v -1.05 c -1.67,-0.028 -2.506,0.429 -2.506,1.372 0,0.354 0.098,0.62 0.293,0.798 0.194,0.177 0.44,0.266 0.738,0.266 0.334,0 0.643,-0.104 0.925,-0.314 0.283,-0.21 0.457,-0.479 0.522,-0.806 0.019,-0.075 0.028,-0.164 0.028,-0.266 z"
       id="path204"
       inkscape:connector-curvature="0" />
    <path
       d="m 91.823,73.061 -0.294,1.148 c -0.383,-0.187 -0.821,-0.28 -1.316,-0.28 -0.662,0 -1.188,0.222 -1.574,0.665 -0.388,0.443 -0.582,1.006 -0.582,1.687 0,0.719 0.203,1.288 0.609,1.708 0.406,0.42 0.922,0.63 1.547,0.63 0.467,0 0.924,-0.093 1.372,-0.279 l 0.21,1.134 c -0.494,0.233 -1.119,0.35 -1.876,0.35 -1.036,0 -1.862,-0.314 -2.478,-0.944 -0.616,-0.63 -0.924,-1.473 -0.924,-2.527 0,-1.054 0.33,-1.92 0.994,-2.597 0.662,-0.677 1.553,-1.016 2.674,-1.016 0.635,-0.002 1.18,0.106 1.638,0.321 z"
       id="path206"
       inkscape:connector-curvature="0" />
  </g>
  <g
     id="g216"
     transform="translate(-68.612,-68.247)">
    <path
       d="m 78.327,78.683 h -1.47 l -0.196,-3.948 c -0.093,-1.782 -0.135,-3.107 -0.126,-3.976 h -0.042 c -0.299,1.11 -0.667,2.301 -1.106,3.57 l -1.47,4.27 H 72.77 l -1.344,-4.2 c -0.401,-1.269 -0.728,-2.482 -0.98,-3.64 h -0.028 c -0.047,1.419 -0.103,2.768 -0.168,4.046 l -0.224,3.878 h -1.414 l 0.63,-9.436 h 1.946 l 1.358,4.088 c 0.336,1.008 0.63,2.091 0.882,3.248 h 0.042 c 0.299,-1.204 0.616,-2.287 0.952,-3.248 l 1.414,-4.088 h 1.946 z"
       id="path210"
       inkscape:connector-curvature="0"
       style="fill:#ffffff" />
    <path
       d="m 85.215,78.683 h -1.357 l -0.113,-0.784 h -0.041 c -0.467,0.626 -1.13,0.938 -1.988,0.938 -0.645,0 -1.162,-0.205 -1.554,-0.616 -0.354,-0.373 -0.532,-0.835 -0.532,-1.386 0,-0.831 0.348,-1.466 1.043,-1.904 0.695,-0.438 1.673,-0.653 2.934,-0.645 V 74.16 c 0,-0.896 -0.473,-1.344 -1.414,-1.344 -0.672,0 -1.266,0.168 -1.779,0.504 l -0.308,-0.994 c 0.634,-0.392 1.415,-0.588 2.338,-0.588 1.782,0 2.674,0.938 2.674,2.814 v 2.506 c -10e-4,0.682 0.031,1.223 0.097,1.625 z m -1.569,-2.338 v -1.05 c -1.67,-0.028 -2.506,0.429 -2.506,1.372 0,0.354 0.098,0.62 0.293,0.798 0.194,0.177 0.44,0.266 0.738,0.266 0.334,0 0.643,-0.104 0.925,-0.314 0.283,-0.21 0.457,-0.479 0.522,-0.806 0.019,-0.075 0.028,-0.164 0.028,-0.266 z"
       id="path212"
       inkscape:connector-curvature="0"
       style="fill:#ffffff" />
    <path
       d="m 91.823,72.061 -0.294,1.148 c -0.383,-0.187 -0.821,-0.28 -1.316,-0.28 -0.662,0 -1.188,0.222 -1.574,0.665 -0.388,0.443 -0.582,1.006 -0.582,1.687 0,0.719 0.203,1.288 0.609,1.708 0.406,0.42 0.922,0.63 1.547,0.63 0.467,0 0.924,-0.093 1.372,-0.279 l 0.21,1.134 c -0.494,0.233 -1.119,0.35 -1.876,0.35 -1.036,0 -1.862,-0.314 -2.478,-0.944 -0.616,-0.63 -0.924,-1.473 -0.924,-2.527 0,-1.054 0.33,-1.92 0.994,-2.597 0.662,-0.677 1.553,-1.016 2.674,-1.016 0.635,-0.002 1.18,0.106 1.638,0.321 z"
       id="path214"
       inkscape:connector-curvature="0"
       style="fill:#ffffff" />
  </g>
</svg>
