<?xml version="1.0" encoding="UTF-8" standalone="no"?>
<svg
   xmlns:dc="http://purl.org/dc/elements/1.1/"
   xmlns:cc="http://creativecommons.org/ns#"
   xmlns:rdf="http://www.w3.org/1999/02/22-rdf-syntax-ns#"
   xmlns:svg="http://www.w3.org/2000/svg"
   xmlns="http://www.w3.org/2000/svg"
   xmlns:sodipodi="http://sodipodi.sourceforge.net/DTD/sodipodi-0.dtd"
   xmlns:inkscape="http://www.inkscape.org/namespaces/inkscape"
   version="1.1"
   width="29.902"
   height="11.73"
   id="svg277"
   sodipodi:docname="store.svg"
   inkscape:version="0.92.4 5da689c313, 2019-01-14">
  <metadata
     id="metadata283">
    <rdf:RDF>
      <cc:Work
         rdf:about="">
        <dc:format>image/svg+xml</dc:format>
        <dc:type
           rdf:resource="http://purl.org/dc/dcmitype/StillImage" />
        <dc:title></dc:title>
      </cc:Work>
    </rdf:RDF>
  </metadata>
  <defs
     id="defs281" />
  <sodipodi:namedview
     pagecolor="#ffffff"
     bordercolor="#666666"
     borderopacity="1"
     objecttolerance="10"
     gridtolerance="10"
     guidetolerance="10"
     inkscape:pageopacity="0"
     inkscape:pageshadow="2"
     inkscape:window-width="640"
     inkscape:window-height="480"
     id="namedview279"
     showgrid="false"
     inkscape:zoom="1.5232259"
     inkscape:cx="-76.348251"
     inkscape:cy="-63.84959"
     inkscape:current-layer="svg277" />
  <g
     id="g228"
     style="fill-opacity:0.5"
     transform="translate(-64.664,-38.08)">
    <path
       d="m 70.516,45.01 c 0,0.804 -0.279,1.456 -0.838,1.961 -0.614,0.551 -1.471,0.825 -2.57,0.825 -1.015,0 -1.83,-0.195 -2.444,-0.588 l 0.35,-1.26 c 0.663,0.392 1.391,0.588 2.184,0.588 0.569,0 1.012,-0.128 1.33,-0.385 0.318,-0.257 0.476,-0.6 0.476,-1.029 0,-0.383 -0.131,-0.704 -0.392,-0.966 -0.261,-0.261 -0.695,-0.504 -1.302,-0.728 -1.652,-0.616 -2.478,-1.517 -2.478,-2.702 0,-0.775 0.292,-1.409 0.875,-1.904 0.583,-0.494 1.355,-0.742 2.317,-0.742 0.859,0 1.573,0.149 2.142,0.448 l -0.379,1.231 c -0.534,-0.289 -1.138,-0.434 -1.812,-0.434 -0.534,0 -0.951,0.131 -1.251,0.392 -0.253,0.233 -0.379,0.519 -0.379,0.854 0,0.373 0.145,0.682 0.434,0.924 0.252,0.225 0.709,0.467 1.372,0.729 0.812,0.326 1.409,0.709 1.792,1.147 0.381,0.441 0.573,0.986 0.573,1.639 z"
       id="path218"
       inkscape:connector-curvature="0" />
    <path
       d="m 75.429,41.986 h -1.666 v 3.304 c 0,0.84 0.294,1.26 0.882,1.26 0.271,0 0.495,-0.022 0.672,-0.069 l 0.042,1.147 c -0.299,0.112 -0.691,0.168 -1.176,0.168 -0.597,0 -1.064,-0.182 -1.4,-0.546 -0.336,-0.363 -0.504,-0.975 -0.504,-1.834 v -3.43 h -0.994 v -1.134 h 0.994 v -1.246 l 1.484,-0.448 v 1.694 h 1.666 z"
       id="path220"
       inkscape:connector-curvature="0" />
    <path
       d="m 82.863,44.198 c 0,1.046 -0.299,1.904 -0.896,2.576 -0.625,0.69 -1.455,1.036 -2.492,1.036 -0.999,0 -1.794,-0.331 -2.387,-0.994 -0.593,-0.663 -0.889,-1.498 -0.889,-2.506 0,-1.055 0.306,-1.918 0.917,-2.59 0.611,-0.673 1.435,-1.009 2.471,-1.009 0.999,0 1.801,0.332 2.408,0.994 0.579,0.646 0.868,1.476 0.868,2.493 z m -1.568,0.035 c 0,-0.624 -0.135,-1.158 -0.406,-1.605 -0.316,-0.54 -0.77,-0.81 -1.357,-0.81 -0.607,0 -1.069,0.27 -1.386,0.81 -0.271,0.447 -0.406,0.991 -0.406,1.634 0,0.623 0.135,1.158 0.406,1.604 0.326,0.54 0.784,0.81 1.372,0.81 0.579,0 1.032,-0.274 1.358,-0.823 0.279,-0.457 0.419,-0.997 0.419,-1.62 z"
       id="path222"
       inkscape:connector-curvature="0" />
    <path
       d="m 87.903,42.183 c -0.149,-0.028 -0.308,-0.042 -0.476,-0.042 -0.532,0 -0.943,0.2 -1.232,0.602 -0.252,0.354 -0.378,0.803 -0.378,1.344 v 3.57 h -1.512 v -4.662 c 0,-0.784 -0.015,-1.498 -0.042,-2.142 h 1.316 l 0.056,1.302 h 0.042 c 0.158,-0.448 0.41,-0.808 0.756,-1.078 0.336,-0.242 0.699,-0.364 1.092,-0.364 0.141,0 0.266,0.01 0.378,0.028 z"
       id="path224"
       inkscape:connector-curvature="0" />
    <path
       d="m 94.566,43.933 c 0,0.271 -0.018,0.499 -0.055,0.686 h -4.537 c 0.02,0.672 0.238,1.186 0.658,1.54 0.383,0.317 0.877,0.476 1.484,0.476 0.672,0 1.283,-0.106 1.834,-0.321 l 0.238,1.05 c -0.645,0.28 -1.405,0.42 -2.282,0.42 -1.055,0 -1.884,-0.311 -2.485,-0.931 -0.602,-0.621 -0.902,-1.454 -0.902,-2.499 0,-1.027 0.279,-1.881 0.84,-2.562 0.588,-0.728 1.381,-1.092 2.38,-1.092 0.979,0 1.722,0.364 2.226,1.092 0.401,0.577 0.601,1.291 0.601,2.141 z M 93.125,43.54 c 0.01,-0.448 -0.089,-0.835 -0.294,-1.162 -0.261,-0.42 -0.663,-0.63 -1.204,-0.63 -0.494,0 -0.896,0.206 -1.203,0.616 -0.253,0.327 -0.402,0.719 -0.449,1.176 z"
       id="path226"
       inkscape:connector-curvature="0" />
  </g>
  <g
     id="g240"
     style="fill-opacity:0.17000002"
     transform="translate(-64.664,-38.08)">
    <path
       d="m 70.516,47.01 c 0,0.804 -0.279,1.456 -0.838,1.961 -0.614,0.551 -1.471,0.825 -2.57,0.825 -1.015,0 -1.83,-0.195 -2.444,-0.588 l 0.35,-1.26 c 0.663,0.392 1.391,0.588 2.184,0.588 0.569,0 1.012,-0.128 1.33,-0.385 0.318,-0.257 0.476,-0.6 0.476,-1.029 0,-0.383 -0.131,-0.704 -0.392,-0.966 -0.261,-0.261 -0.695,-0.504 -1.302,-0.728 -1.652,-0.616 -2.478,-1.517 -2.478,-2.702 0,-0.775 0.292,-1.409 0.875,-1.904 0.583,-0.494 1.355,-0.742 2.317,-0.742 0.859,0 1.573,0.149 2.142,0.448 l -0.379,1.231 c -0.534,-0.289 -1.138,-0.434 -1.812,-0.434 -0.534,0 -0.951,0.131 -1.251,0.392 -0.253,0.233 -0.379,0.519 -0.379,0.854 0,0.373 0.145,0.682 0.434,0.924 0.252,0.225 0.709,0.467 1.372,0.729 0.812,0.326 1.409,0.709 1.792,1.147 0.381,0.441 0.573,0.986 0.573,1.639 z"
       id="path230"
       inkscape:connector-curvature="0" />
    <path
       d="m 75.429,43.986 h -1.666 v 3.304 c 0,0.84 0.294,1.26 0.882,1.26 0.271,0 0.495,-0.022 0.672,-0.069 l 0.042,1.147 c -0.299,0.112 -0.691,0.168 -1.176,0.168 -0.597,0 -1.064,-0.182 -1.4,-0.546 -0.336,-0.363 -0.504,-0.975 -0.504,-1.834 v -3.43 h -0.994 v -1.134 h 0.994 v -1.246 l 1.484,-0.448 v 1.694 h 1.666 z"
       id="path232"
       inkscape:connector-curvature="0" />
    <path
       d="m 82.863,46.198 c 0,1.046 -0.299,1.904 -0.896,2.576 -0.625,0.69 -1.455,1.036 -2.492,1.036 -0.999,0 -1.794,-0.331 -2.387,-0.994 -0.593,-0.663 -0.889,-1.498 -0.889,-2.506 0,-1.055 0.306,-1.918 0.917,-2.59 0.611,-0.673 1.435,-1.009 2.471,-1.009 0.999,0 1.801,0.332 2.408,0.994 0.579,0.646 0.868,1.476 0.868,2.493 z m -1.568,0.035 c 0,-0.624 -0.135,-1.158 -0.406,-1.605 -0.316,-0.54 -0.77,-0.81 -1.357,-0.81 -0.607,0 -1.069,0.27 -1.386,0.81 -0.271,0.447 -0.406,0.991 -0.406,1.634 0,0.623 0.135,1.158 0.406,1.604 0.326,0.54 0.784,0.81 1.372,0.81 0.579,0 1.032,-0.274 1.358,-0.823 0.279,-0.457 0.419,-0.997 0.419,-1.62 z"
       id="path234"
       inkscape:connector-curvature="0" />
    <path
       d="m 87.903,44.183 c -0.149,-0.028 -0.308,-0.042 -0.476,-0.042 -0.532,0 -0.943,0.2 -1.232,0.602 -0.252,0.354 -0.378,0.803 -0.378,1.344 v 3.57 h -1.512 v -4.662 c 0,-0.784 -0.015,-1.498 -0.042,-2.142 h 1.316 l 0.056,1.302 h 0.042 c 0.158,-0.448 0.41,-0.808 0.756,-1.078 0.336,-0.242 0.699,-0.364 1.092,-0.364 0.141,0 0.266,0.01 0.378,0.028 z"
       id="path236"
       inkscape:connector-curvature="0" />
    <path
       d="m 94.566,45.933 c 0,0.271 -0.018,0.499 -0.055,0.686 h -4.537 c 0.02,0.672 0.238,1.186 0.658,1.54 0.383,0.317 0.877,0.476 1.484,0.476 0.672,0 1.283,-0.106 1.834,-0.321 l 0.238,1.05 c -0.645,0.28 -1.405,0.42 -2.282,0.42 -1.055,0 -1.884,-0.311 -2.485,-0.931 -0.602,-0.621 -0.902,-1.454 -0.902,-2.499 0,-1.027 0.279,-1.881 0.84,-2.562 0.588,-0.728 1.381,-1.092 2.38,-1.092 0.979,0 1.722,0.364 2.226,1.092 0.401,0.577 0.601,1.291 0.601,2.141 z M 93.125,45.54 c 0.01,-0.448 -0.089,-0.835 -0.294,-1.162 -0.261,-0.42 -0.663,-0.63 -1.204,-0.63 -0.494,0 -0.896,0.206 -1.203,0.616 -0.253,0.327 -0.402,0.719 -0.449,1.176 z"
       id="path238"
       inkscape:connector-curvature="0" />
  </g>
  <g
     id="g252"
     transform="translate(-64.664,-38.08)">
    <path
       d="m 70.516,46.01 c 0,0.804 -0.279,1.456 -0.838,1.961 -0.614,0.551 -1.471,0.825 -2.57,0.825 -1.015,0 -1.83,-0.195 -2.444,-0.588 l 0.35,-1.26 c 0.663,0.392 1.391,0.588 2.184,0.588 0.569,0 1.012,-0.128 1.33,-0.385 0.318,-0.257 0.476,-0.6 0.476,-1.029 0,-0.383 -0.131,-0.704 -0.392,-0.966 -0.261,-0.261 -0.695,-0.504 -1.302,-0.728 -1.652,-0.616 -2.478,-1.517 -2.478,-2.702 0,-0.775 0.292,-1.409 0.875,-1.904 0.583,-0.494 1.355,-0.742 2.317,-0.742 0.859,0 1.573,0.149 2.142,0.448 l -0.379,1.231 c -0.534,-0.289 -1.138,-0.434 -1.812,-0.434 -0.534,0 -0.951,0.131 -1.251,0.392 -0.253,0.233 -0.379,0.519 -0.379,0.854 0,0.373 0.145,0.682 0.434,0.924 0.252,0.225 0.709,0.467 1.372,0.729 0.812,0.326 1.409,0.709 1.792,1.147 0.381,0.441 0.573,0.986 0.573,1.639 z"
       id="path242"
       inkscape:connector-curvature="0"
       style="fill:#ffffff" />
    <path
       d="m 75.429,42.986 h -1.666 v 3.304 c 0,0.84 0.294,1.26 0.882,1.26 0.271,0 0.495,-0.022 0.672,-0.069 l 0.042,1.147 c -0.299,0.112 -0.691,0.168 -1.176,0.168 -0.597,0 -1.064,-0.182 -1.4,-0.546 -0.336,-0.363 -0.504,-0.975 -0.504,-1.834 v -3.43 h -0.994 v -1.134 h 0.994 v -1.246 l 1.484,-0.448 v 1.694 h 1.666 z"
       id="path244"
       inkscape:connector-curvature="0"
       style="fill:#ffffff" />
    <path
       d="m 82.863,45.198 c 0,1.046 -0.299,1.904 -0.896,2.576 -0.625,0.69 -1.455,1.036 -2.492,1.036 -0.999,0 -1.794,-0.331 -2.387,-0.994 -0.593,-0.663 -0.889,-1.498 -0.889,-2.506 0,-1.055 0.306,-1.918 0.917,-2.59 0.611,-0.673 1.435,-1.009 2.471,-1.009 0.999,0 1.801,0.332 2.408,0.994 0.579,0.646 0.868,1.476 0.868,2.493 z m -1.568,0.035 c 0,-0.624 -0.135,-1.158 -0.406,-1.605 -0.316,-0.54 -0.77,-0.81 -1.357,-0.81 -0.607,0 -1.069,0.27 -1.386,0.81 -0.271,0.447 -0.406,0.991 -0.406,1.634 0,0.623 0.135,1.158 0.406,1.604 0.326,0.54 0.784,0.81 1.372,0.81 0.579,0 1.032,-0.274 1.358,-0.823 0.279,-0.457 0.419,-0.997 0.419,-1.62 z"
       id="path246"
       inkscape:connector-curvature="0"
       style="fill:#ffffff" />
    <path
       d="m 87.903,43.183 c -0.149,-0.028 -0.308,-0.042 -0.476,-0.042 -0.532,0 -0.943,0.2 -1.232,0.602 -0.252,0.354 -0.378,0.803 -0.378,1.344 v 3.57 h -1.512 v -4.662 c 0,-0.784 -0.015,-1.498 -0.042,-2.142 h 1.316 l 0.056,1.302 h 0.042 c 0.158,-0.448 0.41,-0.808 0.756,-1.078 0.336,-0.242 0.699,-0.364 1.092,-0.364 0.141,0 0.266,0.01 0.378,0.028 z"
       id="path248"
       inkscape:connector-curvature="0"
       style="fill:#ffffff" />
    <path
       d="m 94.566,44.933 c 0,0.271 -0.018,0.499 -0.055,0.686 h -4.537 c 0.02,0.672 0.238,1.186 0.658,1.54 0.383,0.317 0.877,0.476 1.484,0.476 0.672,0 1.283,-0.106 1.834,-0.321 l 0.238,1.05 c -0.645,0.28 -1.405,0.42 -2.282,0.42 -1.055,0 -1.884,-0.311 -2.485,-0.931 -0.602,-0.621 -0.902,-1.454 -0.902,-2.499 0,-1.027 0.279,-1.881 0.84,-2.562 0.588,-0.728 1.381,-1.092 2.38,-1.092 0.979,0 1.722,0.364 2.226,1.092 0.401,0.577 0.601,1.291 0.601,2.141 z M 93.125,44.54 c 0.01,-0.448 -0.089,-0.835 -0.294,-1.162 -0.261,-0.42 -0.663,-0.63 -1.204,-0.63 -0.494,0 -0.896,0.206 -1.203,0.616 -0.253,0.327 -0.402,0.719 -0.449,1.176 z"
       id="path250"
       inkscape:connector-curvature="0"
       style="fill:#ffffff" />
  </g>
</svg>
