<?xml version="1.0" encoding="UTF-8" standalone="no"?>
<svg
   xmlns:dc="http://purl.org/dc/elements/1.1/"
   xmlns:cc="http://creativecommons.org/ns#"
   xmlns:rdf="http://www.w3.org/1999/02/22-rdf-syntax-ns#"
   xmlns:svg="http://www.w3.org/2000/svg"
   xmlns="http://www.w3.org/2000/svg"
   xmlns:sodipodi="http://sodipodi.sourceforge.net/DTD/sodipodi-0.dtd"
   xmlns:inkscape="http://www.inkscape.org/namespaces/inkscape"
   version="1.1"
   width="47.150002"
   height="14.333"
   id="svg277"
   sodipodi:docname="Support.svg"
   inkscape:version="0.92.4 5da689c313, 2019-01-14">
  <metadata
     id="metadata283">
    <rdf:RDF>
      <cc:Work
         rdf:about="">
        <dc:format>image/svg+xml</dc:format>
        <dc:type
           rdf:resource="http://purl.org/dc/dcmitype/StillImage" />
        <dc:title></dc:title>
      </cc:Work>
    </rdf:RDF>
  </metadata>
  <defs
     id="defs281" />
  <sodipodi:namedview
     pagecolor="#ffffff"
     bordercolor="#666666"
     borderopacity="1"
     objecttolerance="10"
     gridtolerance="10"
     guidetolerance="10"
     inkscape:pageopacity="0"
     inkscape:pageshadow="2"
     inkscape:window-width="640"
     inkscape:window-height="480"
     id="namedview279"
     showgrid="false"
     inkscape:zoom="2.1541667"
     inkscape:cx="0.84319401"
     inkscape:cy="14.918271"
     inkscape:current-layer="svg277" />
  <g
     id="g16"
     style="fill-opacity:0.5"
     transform="translate(-56.557,-218.328)">
    <path
       d="m 62.409,225.258 c 0,0.804 -0.279,1.456 -0.838,1.961 -0.614,0.551 -1.471,0.825 -2.57,0.825 -1.015,0 -1.83,-0.195 -2.444,-0.588 l 0.35,-1.26 c 0.663,0.392 1.391,0.588 2.184,0.588 0.569,0 1.012,-0.128 1.33,-0.385 0.318,-0.257 0.476,-0.6 0.476,-1.029 0,-0.383 -0.131,-0.704 -0.392,-0.966 -0.261,-0.261 -0.695,-0.504 -1.302,-0.728 -1.652,-0.616 -2.478,-1.517 -2.478,-2.702 0,-0.775 0.292,-1.409 0.875,-1.904 0.583,-0.494 1.355,-0.742 2.317,-0.742 0.859,0 1.573,0.149 2.142,0.448 l -0.379,1.231 c -0.534,-0.289 -1.138,-0.434 -1.812,-0.434 -0.534,0 -0.951,0.131 -1.251,0.392 -0.253,0.233 -0.379,0.519 -0.379,0.854 0,0.373 0.145,0.682 0.434,0.924 0.252,0.225 0.709,0.467 1.372,0.729 0.812,0.326 1.409,0.709 1.792,1.147 0.381,0.441 0.573,0.986 0.573,1.639 z"
       id="path2"
       inkscape:connector-curvature="0" />
    <path
       d="m 69.829,227.904 h -1.33 l -0.084,-1.036 h -0.028 c -0.476,0.794 -1.195,1.19 -2.156,1.19 -0.672,0 -1.208,-0.21 -1.61,-0.63 -0.476,-0.514 -0.714,-1.288 -0.714,-2.324 V 221.1 h 1.512 v 3.752 c 0,1.307 0.448,1.96 1.344,1.96 0.672,0 1.139,-0.327 1.4,-0.98 0.065,-0.168 0.098,-0.359 0.098,-0.574 v -4.157 h 1.512 v 4.844 c -10e-4,0.643 0.018,1.297 0.056,1.959 z"
       id="path4"
       inkscape:connector-curvature="0" />
    <path
       d="m 78.172,224.418 c 0,1.158 -0.315,2.072 -0.943,2.744 -0.563,0.598 -1.263,0.896 -2.098,0.896 -0.901,0 -1.548,-0.322 -1.943,-0.966 v 3.569 h -1.512 v -7.325 c 0,-0.727 -0.019,-1.473 -0.056,-2.236 h 1.33 l 0.084,1.078 h 0.028 c 0.504,-0.812 1.27,-1.219 2.296,-1.219 0.803,0 1.472,0.317 2.009,0.952 0.537,0.636 0.805,1.471 0.805,2.507 z m -1.54,0.057 c 0,-0.663 -0.149,-1.209 -0.448,-1.639 -0.327,-0.447 -0.765,-0.672 -1.316,-0.672 -0.374,0 -0.712,0.124 -1.015,0.371 -0.303,0.247 -0.502,0.572 -0.595,0.973 -0.047,0.188 -0.07,0.341 -0.07,0.463 v 1.134 c 0,0.494 0.152,0.912 0.455,1.253 0.303,0.341 0.698,0.511 1.183,0.511 0.569,0 1.013,-0.219 1.33,-0.658 0.317,-0.44 0.476,-1.018 0.476,-1.736 z"
       id="path6"
       inkscape:connector-curvature="0" />
    <path
       d="m 86.068,224.418 c 0,1.158 -0.314,2.072 -0.943,2.744 -0.563,0.598 -1.263,0.896 -2.098,0.896 -0.901,0 -1.549,-0.322 -1.943,-0.966 v 3.569 h -1.512 v -7.325 c 0,-0.727 -0.019,-1.473 -0.056,-2.236 h 1.33 l 0.084,1.078 h 0.028 c 0.504,-0.812 1.27,-1.219 2.296,-1.219 0.803,0 1.473,0.317 2.01,0.952 0.536,0.636 0.804,1.471 0.804,2.507 z m -1.54,0.057 c 0,-0.663 -0.149,-1.209 -0.448,-1.639 -0.326,-0.447 -0.766,-0.672 -1.316,-0.672 -0.373,0 -0.711,0.124 -1.015,0.371 -0.304,0.247 -0.502,0.572 -0.595,0.973 -0.047,0.188 -0.07,0.341 -0.07,0.463 v 1.134 c 0,0.494 0.152,0.912 0.455,1.253 0.303,0.341 0.697,0.511 1.184,0.511 0.568,0 1.012,-0.219 1.33,-0.658 0.316,-0.44 0.475,-1.018 0.475,-1.736 z"
       id="path8"
       inkscape:connector-curvature="0" />
    <path
       d="m 93.754,224.446 c 0,1.046 -0.299,1.904 -0.896,2.576 -0.625,0.69 -1.455,1.036 -2.492,1.036 -0.998,0 -1.794,-0.331 -2.387,-0.994 -0.592,-0.663 -0.889,-1.498 -0.889,-2.506 0,-1.055 0.306,-1.918 0.917,-2.59 0.611,-0.673 1.435,-1.009 2.472,-1.009 0.998,0 1.801,0.332 2.407,0.994 0.579,0.646 0.868,1.476 0.868,2.493 z m -1.568,0.035 c 0,-0.624 -0.135,-1.158 -0.406,-1.605 -0.316,-0.54 -0.77,-0.81 -1.357,-0.81 -0.607,0 -1.068,0.27 -1.386,0.81 -0.271,0.447 -0.406,0.991 -0.406,1.634 0,0.623 0.136,1.158 0.406,1.604 0.326,0.54 0.784,0.81 1.372,0.81 0.578,0 1.031,-0.274 1.357,-0.823 0.28,-0.456 0.42,-0.997 0.42,-1.62 z"
       id="path10"
       inkscape:connector-curvature="0" />
    <path
       d="m 98.793,222.431 c -0.148,-0.028 -0.307,-0.042 -0.475,-0.042 -0.533,0 -0.943,0.2 -1.232,0.602 -0.252,0.354 -0.379,0.803 -0.379,1.344 v 3.57 h -1.512 v -4.662 c 0,-0.784 -0.014,-1.498 -0.041,-2.142 h 1.315 l 0.056,1.302 h 0.043 c 0.158,-0.448 0.41,-0.808 0.756,-1.078 0.336,-0.242 0.699,-0.364 1.092,-0.364 0.14,0 0.266,0.01 0.377,0.028 z"
       id="path12"
       inkscape:connector-curvature="0" />
    <path
       d="m 103.707,222.234 h -1.666 v 3.304 c 0,0.84 0.295,1.26 0.883,1.26 0.271,0 0.494,-0.022 0.672,-0.069 l 0.042,1.147 c -0.299,0.112 -0.69,0.168 -1.177,0.168 -0.597,0 -1.063,-0.182 -1.399,-0.546 -0.336,-0.363 -0.504,-0.975 -0.504,-1.834 v -3.43 H 99.564 V 221.1 h 0.994 v -1.246 l 1.483,-0.448 v 1.694 h 1.666 z"
       id="path14"
       inkscape:connector-curvature="0" />
  </g>
  <g
     id="g32"
     style="fill-opacity:0.17000002"
     transform="translate(-56.557,-218.328)">
    <path
       d="m 62.409,227.258 c 0,0.804 -0.279,1.456 -0.838,1.961 -0.614,0.551 -1.471,0.825 -2.57,0.825 -1.015,0 -1.83,-0.195 -2.444,-0.588 l 0.35,-1.26 c 0.663,0.392 1.391,0.588 2.184,0.588 0.569,0 1.012,-0.128 1.33,-0.385 0.318,-0.257 0.476,-0.6 0.476,-1.029 0,-0.383 -0.131,-0.704 -0.392,-0.966 -0.261,-0.261 -0.695,-0.504 -1.302,-0.728 -1.652,-0.616 -2.478,-1.517 -2.478,-2.702 0,-0.775 0.292,-1.409 0.875,-1.904 0.583,-0.494 1.355,-0.742 2.317,-0.742 0.859,0 1.573,0.149 2.142,0.448 l -0.379,1.231 c -0.534,-0.289 -1.138,-0.434 -1.812,-0.434 -0.534,0 -0.951,0.131 -1.251,0.392 -0.253,0.233 -0.379,0.519 -0.379,0.854 0,0.373 0.145,0.682 0.434,0.924 0.252,0.225 0.709,0.467 1.372,0.729 0.812,0.326 1.409,0.709 1.792,1.147 0.381,0.441 0.573,0.986 0.573,1.639 z"
       id="path18"
       inkscape:connector-curvature="0" />
    <path
       d="m 69.829,229.904 h -1.33 l -0.084,-1.036 h -0.028 c -0.476,0.794 -1.195,1.19 -2.156,1.19 -0.672,0 -1.208,-0.21 -1.61,-0.63 -0.476,-0.514 -0.714,-1.288 -0.714,-2.324 V 223.1 h 1.512 v 3.752 c 0,1.307 0.448,1.96 1.344,1.96 0.672,0 1.139,-0.327 1.4,-0.98 0.065,-0.168 0.098,-0.359 0.098,-0.574 v -4.157 h 1.512 v 4.844 c -10e-4,0.643 0.018,1.297 0.056,1.959 z"
       id="path20"
       inkscape:connector-curvature="0" />
    <path
       d="m 78.172,226.418 c 0,1.158 -0.315,2.072 -0.943,2.744 -0.563,0.598 -1.263,0.896 -2.098,0.896 -0.901,0 -1.548,-0.322 -1.943,-0.966 v 3.569 h -1.512 v -7.325 c 0,-0.727 -0.019,-1.473 -0.056,-2.236 h 1.33 l 0.084,1.078 h 0.028 c 0.504,-0.812 1.27,-1.219 2.296,-1.219 0.803,0 1.472,0.317 2.009,0.952 0.537,0.636 0.805,1.471 0.805,2.507 z m -1.54,0.057 c 0,-0.663 -0.149,-1.209 -0.448,-1.639 -0.327,-0.447 -0.765,-0.672 -1.316,-0.672 -0.374,0 -0.712,0.124 -1.015,0.371 -0.303,0.247 -0.502,0.572 -0.595,0.973 -0.047,0.188 -0.07,0.341 -0.07,0.463 v 1.134 c 0,0.494 0.152,0.912 0.455,1.253 0.303,0.341 0.698,0.511 1.183,0.511 0.569,0 1.013,-0.219 1.33,-0.658 0.317,-0.44 0.476,-1.018 0.476,-1.736 z"
       id="path22"
       inkscape:connector-curvature="0" />
    <path
       d="m 86.068,226.418 c 0,1.158 -0.314,2.072 -0.943,2.744 -0.563,0.598 -1.263,0.896 -2.098,0.896 -0.901,0 -1.549,-0.322 -1.943,-0.966 v 3.569 h -1.512 v -7.325 c 0,-0.727 -0.019,-1.473 -0.056,-2.236 h 1.33 l 0.084,1.078 h 0.028 c 0.504,-0.812 1.27,-1.219 2.296,-1.219 0.803,0 1.473,0.317 2.01,0.952 0.536,0.636 0.804,1.471 0.804,2.507 z m -1.54,0.057 c 0,-0.663 -0.149,-1.209 -0.448,-1.639 -0.326,-0.447 -0.766,-0.672 -1.316,-0.672 -0.373,0 -0.711,0.124 -1.015,0.371 -0.304,0.247 -0.502,0.572 -0.595,0.973 -0.047,0.188 -0.07,0.341 -0.07,0.463 v 1.134 c 0,0.494 0.152,0.912 0.455,1.253 0.303,0.341 0.697,0.511 1.184,0.511 0.568,0 1.012,-0.219 1.33,-0.658 0.316,-0.44 0.475,-1.018 0.475,-1.736 z"
       id="path24"
       inkscape:connector-curvature="0" />
    <path
       d="m 93.754,226.446 c 0,1.046 -0.299,1.904 -0.896,2.576 -0.625,0.69 -1.455,1.036 -2.492,1.036 -0.998,0 -1.794,-0.331 -2.387,-0.994 -0.592,-0.663 -0.889,-1.498 -0.889,-2.506 0,-1.055 0.306,-1.918 0.917,-2.59 0.611,-0.673 1.435,-1.009 2.472,-1.009 0.998,0 1.801,0.332 2.407,0.994 0.579,0.646 0.868,1.476 0.868,2.493 z m -1.568,0.035 c 0,-0.624 -0.135,-1.158 -0.406,-1.605 -0.316,-0.54 -0.77,-0.81 -1.357,-0.81 -0.607,0 -1.068,0.27 -1.386,0.81 -0.271,0.447 -0.406,0.991 -0.406,1.634 0,0.623 0.136,1.158 0.406,1.604 0.326,0.54 0.784,0.81 1.372,0.81 0.578,0 1.031,-0.274 1.357,-0.823 0.28,-0.456 0.42,-0.997 0.42,-1.62 z"
       id="path26"
       inkscape:connector-curvature="0" />
    <path
       d="m 98.793,224.431 c -0.148,-0.028 -0.307,-0.042 -0.475,-0.042 -0.533,0 -0.943,0.2 -1.232,0.602 -0.252,0.354 -0.379,0.803 -0.379,1.344 v 3.57 h -1.512 v -4.662 c 0,-0.784 -0.014,-1.498 -0.041,-2.142 h 1.315 l 0.056,1.302 h 0.043 c 0.158,-0.448 0.41,-0.808 0.756,-1.078 0.336,-0.242 0.699,-0.364 1.092,-0.364 0.14,0 0.266,0.01 0.377,0.028 z"
       id="path28"
       inkscape:connector-curvature="0" />
    <path
       d="m 103.707,224.234 h -1.666 v 3.304 c 0,0.84 0.295,1.26 0.883,1.26 0.271,0 0.494,-0.022 0.672,-0.069 l 0.042,1.147 c -0.299,0.112 -0.69,0.168 -1.177,0.168 -0.597,0 -1.063,-0.182 -1.399,-0.546 -0.336,-0.363 -0.504,-0.975 -0.504,-1.834 v -3.43 H 99.564 V 223.1 h 0.994 v -1.246 l 1.483,-0.448 v 1.694 h 1.666 z"
       id="path30"
       inkscape:connector-curvature="0" />
  </g>
  <g
     id="g48"
     transform="translate(-56.557,-218.328)">
    <path
       d="m 62.409,226.258 c 0,0.804 -0.279,1.456 -0.838,1.961 -0.614,0.551 -1.471,0.825 -2.57,0.825 -1.015,0 -1.83,-0.195 -2.444,-0.588 l 0.35,-1.26 c 0.663,0.392 1.391,0.588 2.184,0.588 0.569,0 1.012,-0.128 1.33,-0.385 0.318,-0.257 0.476,-0.6 0.476,-1.029 0,-0.383 -0.131,-0.704 -0.392,-0.966 -0.261,-0.261 -0.695,-0.504 -1.302,-0.728 -1.652,-0.616 -2.478,-1.517 -2.478,-2.702 0,-0.775 0.292,-1.409 0.875,-1.904 0.583,-0.494 1.355,-0.742 2.317,-0.742 0.859,0 1.573,0.149 2.142,0.448 l -0.379,1.231 c -0.534,-0.289 -1.138,-0.434 -1.812,-0.434 -0.534,0 -0.951,0.131 -1.251,0.392 -0.253,0.233 -0.379,0.519 -0.379,0.854 0,0.373 0.145,0.682 0.434,0.924 0.252,0.225 0.709,0.467 1.372,0.729 0.812,0.326 1.409,0.709 1.792,1.147 0.381,0.441 0.573,0.986 0.573,1.639 z"
       id="path34"
       inkscape:connector-curvature="0"
       style="fill:#ffffff" />
    <path
       d="m 69.829,228.904 h -1.33 l -0.084,-1.036 h -0.028 c -0.476,0.794 -1.195,1.19 -2.156,1.19 -0.672,0 -1.208,-0.21 -1.61,-0.63 -0.476,-0.514 -0.714,-1.288 -0.714,-2.324 V 222.1 h 1.512 v 3.752 c 0,1.307 0.448,1.96 1.344,1.96 0.672,0 1.139,-0.327 1.4,-0.98 0.065,-0.168 0.098,-0.359 0.098,-0.574 v -4.157 h 1.512 v 4.844 c -10e-4,0.643 0.018,1.297 0.056,1.959 z"
       id="path36"
       inkscape:connector-curvature="0"
       style="fill:#ffffff" />
    <path
       d="m 78.172,225.418 c 0,1.158 -0.315,2.072 -0.943,2.744 -0.563,0.598 -1.263,0.896 -2.098,0.896 -0.901,0 -1.548,-0.322 -1.943,-0.966 v 3.569 h -1.512 v -7.325 c 0,-0.727 -0.019,-1.473 -0.056,-2.236 h 1.33 l 0.084,1.078 h 0.028 c 0.504,-0.812 1.27,-1.219 2.296,-1.219 0.803,0 1.472,0.317 2.009,0.952 0.537,0.636 0.805,1.471 0.805,2.507 z m -1.54,0.057 c 0,-0.663 -0.149,-1.209 -0.448,-1.639 -0.327,-0.447 -0.765,-0.672 -1.316,-0.672 -0.374,0 -0.712,0.124 -1.015,0.371 -0.303,0.247 -0.502,0.572 -0.595,0.973 -0.047,0.188 -0.07,0.341 -0.07,0.463 v 1.134 c 0,0.494 0.152,0.912 0.455,1.253 0.303,0.341 0.698,0.511 1.183,0.511 0.569,0 1.013,-0.219 1.33,-0.658 0.317,-0.44 0.476,-1.018 0.476,-1.736 z"
       id="path38"
       inkscape:connector-curvature="0"
       style="fill:#ffffff" />
    <path
       d="m 86.068,225.418 c 0,1.158 -0.314,2.072 -0.943,2.744 -0.563,0.598 -1.263,0.896 -2.098,0.896 -0.901,0 -1.549,-0.322 -1.943,-0.966 v 3.569 h -1.512 v -7.325 c 0,-0.727 -0.019,-1.473 -0.056,-2.236 h 1.33 l 0.084,1.078 h 0.028 c 0.504,-0.812 1.27,-1.219 2.296,-1.219 0.803,0 1.473,0.317 2.01,0.952 0.536,0.636 0.804,1.471 0.804,2.507 z m -1.54,0.057 c 0,-0.663 -0.149,-1.209 -0.448,-1.639 -0.326,-0.447 -0.766,-0.672 -1.316,-0.672 -0.373,0 -0.711,0.124 -1.015,0.371 -0.304,0.247 -0.502,0.572 -0.595,0.973 -0.047,0.188 -0.07,0.341 -0.07,0.463 v 1.134 c 0,0.494 0.152,0.912 0.455,1.253 0.303,0.341 0.697,0.511 1.184,0.511 0.568,0 1.012,-0.219 1.33,-0.658 0.316,-0.44 0.475,-1.018 0.475,-1.736 z"
       id="path40"
       inkscape:connector-curvature="0"
       style="fill:#ffffff" />
    <path
       d="m 93.754,225.446 c 0,1.046 -0.299,1.904 -0.896,2.576 -0.625,0.69 -1.455,1.036 -2.492,1.036 -0.998,0 -1.794,-0.331 -2.387,-0.994 -0.592,-0.663 -0.889,-1.498 -0.889,-2.506 0,-1.055 0.306,-1.918 0.917,-2.59 0.611,-0.673 1.435,-1.009 2.472,-1.009 0.998,0 1.801,0.332 2.407,0.994 0.579,0.646 0.868,1.476 0.868,2.493 z m -1.568,0.035 c 0,-0.624 -0.135,-1.158 -0.406,-1.605 -0.316,-0.54 -0.77,-0.81 -1.357,-0.81 -0.607,0 -1.068,0.27 -1.386,0.81 -0.271,0.447 -0.406,0.991 -0.406,1.634 0,0.623 0.136,1.158 0.406,1.604 0.326,0.54 0.784,0.81 1.372,0.81 0.578,0 1.031,-0.274 1.357,-0.823 0.28,-0.456 0.42,-0.997 0.42,-1.62 z"
       id="path42"
       inkscape:connector-curvature="0"
       style="fill:#ffffff" />
    <path
       d="m 98.793,223.431 c -0.148,-0.028 -0.307,-0.042 -0.475,-0.042 -0.533,0 -0.943,0.2 -1.232,0.602 -0.252,0.354 -0.379,0.803 -0.379,1.344 v 3.57 h -1.512 v -4.662 c 0,-0.784 -0.014,-1.498 -0.041,-2.142 h 1.315 l 0.056,1.302 h 0.043 c 0.158,-0.448 0.41,-0.808 0.756,-1.078 0.336,-0.242 0.699,-0.364 1.092,-0.364 0.14,0 0.266,0.01 0.377,0.028 z"
       id="path44"
       inkscape:connector-curvature="0"
       style="fill:#ffffff" />
    <path
       d="m 103.707,223.234 h -1.666 v 3.304 c 0,0.84 0.295,1.26 0.883,1.26 0.271,0 0.494,-0.022 0.672,-0.069 l 0.042,1.147 c -0.299,0.112 -0.69,0.168 -1.177,0.168 -0.597,0 -1.063,-0.182 -1.399,-0.546 -0.336,-0.363 -0.504,-0.975 -0.504,-1.834 v -3.43 H 99.564 V 222.1 h 0.994 v -1.246 l 1.483,-0.448 v 1.694 h 1.666 z"
       id="path46"
       inkscape:connector-curvature="0"
       style="fill:#ffffff" />
  </g>
</svg>
